<?xml version="1.0" encoding="UTF-8"?>
<svg width="459.828125" height="976" id="mermaid-1773037888618" xmlns="http://www.w3.org/2000/svg" class="flowchart" style="max-width: 459.828125px;" viewBox="0 0 459.828125 976" role="graphics-document document" aria-roledescription="flowchart-v2"><style>

        /* Playful Doodle Style - Hand-drawn whimsical design */
        
        /* Flowchart nodes - Soft colors with hand-drawn borders */
        .node rect, .node polygon {
          fill: #ffdff6 !important;
          stroke: #000000 !important;
          stroke-width: 3px !important;
          rx: 20px !important;
          ry: 20px !important;
          filter: drop-shadow(4px 4px 0px rgba(0,0,0,0.2));
        }
        
        .node circle {
          fill: #ffdff6 !important;
          stroke: #000000 !important;
          stroke-width: 3px !important;
          filter: drop-shadow(3px 3px 0px rgba(0,0,0,0.15));
        }
        
        .node .label {
          font-family: "Comic Neue", "Comic Sans MS", "Noto Sans SC", cursive, sans-serif;
          font-weight: 600;
          fill: #000000 !important;
          font-size: 15px;
        }
        
        /* Alternate node colors - Doodle style palette */
        .node:nth-child(2n) rect,
        .node:nth-child(2n) circle,
        .node:nth-child(2n) polygon {
          fill: #dff4ff !important;
        }
        
        .node:nth-child(3n) rect,
        .node:nth-child(3n) circle,
        .node:nth-child(3n) polygon {
          fill: #f0e7ff !important;
        }
        
        .node:nth-child(5n) rect,
        .node:nth-child(5n) circle,
        .node:nth-child(5n) polygon {
          fill: #fff4e6 !important;
        }
        
        .node:nth-child(7n) rect,
        .node:nth-child(7n) circle,
        .node:nth-child(7n) polygon {
          fill: #e7f9f5 !important;
        }
        
        /* Connection lines - Hand-drawn style */
        .edgePath .path {
          stroke: #000000 !important;
          stroke-width: 3px !important;
          stroke-linecap: round;
          stroke-linejoin: round;
        }
        
        .arrowheadPath {
          fill: #000000 !important;
          stroke: #000000 !important;
          stroke-width: 2px !important;
        }
        
        .edgeLabel {
          color: #000000 !important;
          font-family: "Comic Neue", "Comic Sans MS", "Noto Sans SC", cursive, sans-serif;
          font-size: 14px;
          font-weight: 600;
        }
        
        .edgeLabel rect {
          fill: #ffffff !important;
          stroke: #000000 !important;
          stroke-width: 2px !important;
          rx: 12px !important;
          filter: drop-shadow(2px 2px 0px rgba(0,0,0,0.1));
        }
        
        /* Sequence Diagram - Doodle style */
        .actor {
          fill: #ffdff6 !important;
          stroke: #000000 !important;
          stroke-width: 3px !important;
          rx: 20px !important;
          ry: 20px !important;
          filter: drop-shadow(4px 4px 0px rgba(0,0,0,0.2));
        }
        
        .actor:nth-child(2n) {
          fill: #dff4ff !important;
        }
        
        .actor:nth-child(3n) {
          fill: #f0e7ff !important;
        }
        
        .actor:nth-child(4n) {
          fill: #fff4e6 !important;
        }
        
        .actor text {
          fill: #000000 !important;
          font-family: "Comic Neue", "Comic Sans MS", "Noto Sans SC", cursive, sans-serif;
          font-weight: 700;
        }
        
        .actor-line, g line.actor-line, g path.actor-line {
          stroke: #000000 !important;
          stroke-width: 2px !important;
          stroke-dasharray: 6 3 !important;
        }
        
        .activation0, .activation1, .activation2 {
          fill: #f0e7ff !important;
          stroke: #000000 !important;
          stroke-width: 3px !important;
          rx: 8px !important;
          filter: drop-shadow(3px 3px 0px rgba(0,0,0,0.15));
        }
        
        .messageLine0, .messageLine1 {
          stroke: #000000 !important;
          stroke-width: 3px !important;
          stroke-linecap: round;
        }
        
        .messageText {
          fill: #000000 !important;
          font-family: "Comic Neue", "Comic Sans MS", "Noto Sans SC", cursive, sans-serif;
          font-weight: 600;
          font-size: 14px;
        }
        
        #arrowhead path, .arrowheadPath {
          fill: #000000 !important;
          stroke: #000000 !important;
        }
        
        /* Note boxes - Soft yellow */
        .note {
          fill: #fff4e6 !important;
          stroke: #000000 !important;
          stroke-width: 3px !important;
          rx: 15px !important;
          ry: 15px !important;
          filter: drop-shadow(4px 4px 0px rgba(0,0,0,0.2));
        }
        
        .noteText {
          fill: #000000 !important;
          font-family: "Comic Neue", "Comic Sans MS", "Noto Sans SC", cursive, sans-serif;
          font-weight: 600;
        }
        
        /* Loop/Alt/Opt boxes - Soft purple */
        .labelBox {
          fill: #f0e7ff !important;
          stroke: #000000 !important;
          stroke-width: 3px !important;
          rx: 15px !important;
          ry: 15px !important;
          filter: drop-shadow(4px 4px 0px rgba(0,0,0,0.2));
        }
        
        .labelText, .loopText {
          fill: #000000 !important;
          font-family: "Comic Neue", "Comic Sans MS", "Noto Sans SC", cursive, sans-serif;
          font-weight: 700;
        }
        
        .loopLine {
          stroke: #000000 !important;
          stroke-width: 3px !important;
          rx: 15px !important;
        }
        
        /* Cluster/Subgraph styling - Soft blue */
        .cluster rect {
          fill: #dff4ff !important;
          stroke: #000000 !important;
          stroke-width: 3px !important;
          rx: 25px !important;
          ry: 25px !important;
          filter: drop-shadow(5px 5px 0px rgba(0,0,0,0.15));
        }
        
        .cluster text {
          fill: #000000 !important;
          font-family: "Comic Neue", "Comic Sans MS", "Noto Sans SC", cursive, sans-serif;
          font-weight: 700;
        }
        
        /* State diagram */
        .statediagram-state rect,
        .statediagram-state .state-inner {
          fill: #ffdff6 !important;
          stroke: #000000 !important;
          stroke-width: 3px !important;
          rx: 20px !important;
          filter: drop-shadow(4px 4px 0px rgba(0,0,0,0.2));
        }
        
        .statediagram-state:nth-child(2n) rect,
        .statediagram-state:nth-child(2n) .state-inner {
          fill: #dff4ff !important;
        }
        
        .statediagram-state:nth-child(3n) rect,
        .statediagram-state:nth-child(3n) .state-inner {
          fill: #f0e7ff !important;
        }
        
        .statediagram-state:nth-child(5n) rect,
        .statediagram-state:nth-child(5n) .state-inner {
          fill: #fff4e6 !important;
        }
        
        .stateLabel text {
          fill: #000000 !important;
          font-family: "Comic Neue", "Comic Sans MS", "Noto Sans SC", cursive, sans-serif;
          font-weight: 700;
        }
        
        .transition {
          stroke: #000000 !important;
          stroke-width: 3px !important;
        }
        
        /* Class Diagram */
        .classGroup rect {
          fill: #ffdff6 !important;
          stroke: #000000 !important;
          stroke-width: 3px !important;
          rx: 20px !important;
          filter: drop-shadow(4px 4px 0px rgba(0,0,0,0.2));
        }
        
        .classGroup:nth-child(2n) rect {
          fill: #dff4ff !important;
        }
        
        .classGroup:nth-child(3n) rect {
          fill: #f0e7ff !important;
        }
        
        .classGroup line {
          stroke: #000000 !important;
          stroke-width: 2px !important;
        }
        
        .classLabel .label {
          fill: #000000 !important;
          font-family: "Comic Neue", "Comic Sans MS", "Noto Sans SC", cursive, sans-serif;
          font-weight: 700;
        }
        
        .classLabel .box {
          stroke: #000000 !important;
          stroke-width: 3px !important;
          rx: 20px !important;
        }
        
        .relationshipLine {
          stroke: #000000 !important;
          stroke-width: 3px !important;
        }
        
        .relationshipLabelBox {
          fill: #ffffff !important;
          stroke: #000000 !important;
          stroke-width: 2px !important;
          rx: 10px !important;
        }
        
        /* ER Diagram */
        .er.entityBox {
          fill: #dff4ff !important;
          stroke: #000000 !important;
          stroke-width: 3px !important;
          rx: 20px !important;
          filter: drop-shadow(4px 4px 0px rgba(0,0,0,0.2));
        }
        
        .er.entityBox:nth-child(2n) {
          fill: #ffdff6 !important;
        }
        
        .er.entityBox:nth-child(3n) {
          fill: #f0e7ff !important;
        }
        
        .er.entityLabel,
        .er.relationshipLabel {
          fill: #000000 !important;
          font-family: "Comic Neue", "Comic Sans MS", "Noto Sans SC", cursive, sans-serif;
          font-weight: 700;
        }
        
        .er .relationshipLine {
          stroke: #000000 !important;
          stroke-width: 3px !important;
        }
        
        .er .relationshipLabelBox {
          fill: #ffffff !important;
          stroke: #000000 !important;
          stroke-width: 2px !important;
          rx: 10px !important;
        }
        
        /* Gantt Chart */
        .titleText {
          fill: #000000 !important;
          font-family: "Comic Neue", "Comic Sans MS", "Noto Sans SC", cursive, sans-serif;
          font-weight: 700;
          font-size: 20px;
        }
        
        .grid .tick text {
          fill: #000000 !important;
          font-family: "Comic Neue", "Comic Sans MS", "Noto Sans SC", cursive, sans-serif;
          font-size: 13px;
        }
        
        .grid line {
          stroke: #e0e0e0 !important;
          stroke-width: 1px !important;
          opacity: 0.5;
        }
        
        .taskText {
          fill: #000000 !important;
          font-family: "Comic Neue", "Comic Sans MS", "Noto Sans SC", cursive, sans-serif;
          font-weight: 600;
        }
        
        .taskTextOutsideRight,
        .taskTextOutsideLeft {
          fill: #000000 !important;
          font-family: "Comic Neue", "Comic Sans MS", "Noto Sans SC", cursive, sans-serif;
          font-weight: 600;
        }
        
        .task0, .task1, .task2, .task3 {
          stroke: #000000 !important;
          stroke-width: 3px !important;
          rx: 12px !important;
        }
        
        .task0 {
          fill: #ffdff6 !important;
        }
        
        .task1 {
          fill: #dff4ff !important;
        }
        
        .task2 {
          fill: #f0e7ff !important;
        }
        
        .task3 {
          fill: #fff4e6 !important;
        }
        
        .section0, .section1, .section2, .section3 {
          fill: #000000 !important;
          font-family: "Comic Neue", "Comic Sans MS", "Noto Sans SC", cursive, sans-serif;
          font-weight: 700;
          font-size: 14px;
        }
        
        .sectionTitle0, .sectionTitle1, .sectionTitle2, .sectionTitle3 {
          fill: #ffffff !important;
        }
        
        .done0, .done1, .done2, .done3 {
          stroke: #22c55e !important;
          stroke-width: 3px !important;
          fill: #bbf7d0 !important;
        }
        
        .active0, .active1, .active2, .active3 {
          stroke: #3b82f6 !important;
          stroke-width: 3px !important;
          fill: #bfdbfe !important;
        }
        
        .crit0, .crit1, .crit2, .crit3 {
          stroke: #ef4444 !important;
          stroke-width: 3px !important;
          fill: #fecaca !important;
        }
        
        .activeCrit0, .activeCrit1, .activeCrit2, .activeCrit3 {
          stroke: #9333ea !important;
          stroke-width: 3px !important;
          fill: #e9d5ff !important;
        }
        
        /* Pie Chart */
        .pieCircle {
          stroke: #000000 !important;
          stroke-width: 3px !important;
        }
        
        .pieTitleText {
          fill: #000000 !important;
          font-family: "Comic Neue", "Comic Sans MS", "Noto Sans SC", cursive, sans-serif;
          font-weight: 700;
          font-size: 20px;
        }
        
        .slice {
          stroke: #000000 !important;
          stroke-width: 3px !important;
          filter: drop-shadow(2px 2px 0px rgba(0,0,0,0.1));
        }
        
        .slice:nth-child(1) {
          fill: #ffdff6 !important;
        }
        
        .slice:nth-child(2) {
          fill: #dff4ff !important;
        }
        
        .slice:nth-child(3) {
          fill: #f0e7ff !important;
        }
        
        .slice:nth-child(4) {
          fill: #fff4e6 !important;
        }
        
        .slice:nth-child(5) {
          fill: #e7f9f5 !important;
        }
        
        .slice:nth-child(6) {
          fill: #fef3c7 !important;
        }
        
        .pieOuterCircle {
          stroke: #000000 !important;
          stroke-width: 3px !important;
          fill: none;
        }
        
        .legend text {
          fill: #000000 !important;
          font-family: "Comic Neue", "Comic Sans MS", "Noto Sans SC", cursive, sans-serif;
          font-weight: 600;
          font-size: 14px;
        }
        
        .legend rect {
          stroke: #000000 !important;
          stroke-width: 2px !important;
          rx: 6px !important;
        }
        
        /* Journey Diagram */
        .journey-section {
          stroke: #000000 !important;
          stroke-width: 3px !important;
          fill: #f0e7ff !important;
          rx: 15px !important;
        }
        
        .task-section {
          fill: #ffdff6 !important;
          stroke: #000000 !important;
          stroke-width: 3px !important;
          rx: 12px !important;
        }
        
        .task-section:nth-child(2n) {
          fill: #dff4ff !important;
        }
        
        .task-section:nth-child(3n) {
          fill: #fff4e6 !important;
        }
        
        /* XYChart styles - Doodle theme colors */
        .line-plot-0 path {
          stroke: #ec4899 !important;
          stroke-width: 4px !important;
          stroke-linecap: round;
          stroke-linejoin: round;
        }
        
        .line-plot-1 path {
          stroke: #3b82f6 !important;
          stroke-width: 4px !important;
          stroke-linecap: round;
          stroke-linejoin: round;
        }
        
        .line-plot-2 path {
          stroke: #9333ea !important;
          stroke-width: 4px !important;
          stroke-linecap: round;
          stroke-linejoin: round;
        }
        
        .bar-plot-0 rect {
          fill: #fce7f3 !important;
          stroke: #ec4899 !important;
          stroke-width: 3px !important;
          rx: 8px !important;
        }
        
        .bar-plot-1 rect {
          fill: #dbeafe !important;
          stroke: #3b82f6 !important;
          stroke-width: 3px !important;
          rx: 8px !important;
        }
        
        .bar-plot-2 rect {
          fill: #f3e8ff !important;
          stroke: #9333ea !important;
          stroke-width: 3px !important;
          rx: 8px !important;
        }
        
        .ticks path {
          stroke: #000000 !important;
          stroke-width: 2px !important;
        }
        
        .chart-title text {
          fill: #000000 !important;
          font-weight: 700 !important;
          font-size: 20px !important;
          font-family: "Comic Neue", "Comic Sans MS", "Noto Sans SC", cursive, sans-serif;
        }
        
        .left-axis .label text, .bottom-axis .label text {
          fill: #000000 !important;
          font-size: 14px !important;
          font-family: "Comic Neue", "Comic Sans MS", "Noto Sans SC", cursive, sans-serif;
          font-weight: 600;
        }
        
        .left-axis .title text, .bottom-axis .title text {
          fill: #000000 !important;
          font-size: 16px !important;
          font-family: "Comic Neue", "Comic Sans MS", "Noto Sans SC", cursive, sans-serif;
          font-weight: 700;
        }
        
        .legend text {
          fill: #000000 !important;
          font-size: 14px !important;
          font-family: "Comic Neue", "Comic Sans MS", "Noto Sans SC", cursive, sans-serif;
          font-weight: 600;
        }
        
        .legend rect {
          stroke: #000000 !important;
          stroke-width: 2px !important;
          rx: 6px !important;
        }
        
        /* Git Graph */
        .commit-id, .commit-msg, .branch-label {
          fill: #000000 !important;
          font-family: "Comic Neue", "Comic Sans MS", "Noto Sans SC", cursive, sans-serif;
          font-weight: 600;
        }
        
        .commit {
          stroke: #000000 !important;
          stroke-width: 3px !important;
        }
        
        .commit0 {
          fill: #ffdff6 !important;
        }
        
        .commit1 {
          fill: #dff4ff !important;
        }
        
        .commit2 {
          fill: #f0e7ff !important;
        }
        
        .commit3 {
          fill: #fff4e6 !important;
        }
        
        .commit-highlight-outer {
          fill: #fbbf24;
          opacity: 0.3;
        }
        
        .commit-highlight-inner {
          fill: #fbbf24;
          opacity: 0.5;
          stroke: #f59e0b;
        }
        
        .branch path {
          stroke-width: 3px !important;
          stroke-linecap: round;
          stroke-linejoin: round;
        }
        
        .branch.branch0 {
          stroke: #ec4899 !important;
        }
        
        .branch.branch1 {
          stroke: #3b82f6 !important;
        }
        
        .branch.branch2 {
          stroke: #9333ea !important;
        }
        
        .branch.branch3 {
          stroke: #f59e0b !important;
        }
        
        /* Timeline */
        .timeline-event {
          fill: #ffdff6 !important;
          stroke: #000000 !important;
          stroke-width: 3px !important;
          rx: 15px !important;
          filter: drop-shadow(3px 3px 0px rgba(0,0,0,0.15));
        }
        
        .timeline-event:nth-child(2n) {
          fill: #dff4ff !important;
        }
        
        .timeline-event:nth-child(3n) {
          fill: #f0e7ff !important;
        }
        
        .timeline-event-text {
          fill: #000000 !important;
          font-family: "Comic Neue", "Comic Sans MS", "Noto Sans SC", cursive, sans-serif;
          font-weight: 600;
        }
      
</style><style>#mermaid-1773037888618{font-family:"Comic Neue","Comic Sans MS","Noto Sans SC",cursive,sans-serif;font-size:15px;fill:#000000;}@keyframes edge-animation-frame{from{stroke-dashoffset:0;}}@keyframes dash{to{stroke-dashoffset:0;}}#mermaid-1773037888618 .edge-animation-slow{stroke-dasharray:9,5!important;stroke-dashoffset:900;animation:dash 50s linear infinite;stroke-linecap:round;}#mermaid-1773037888618 .edge-animation-fast{stroke-dasharray:9,5!important;stroke-dashoffset:900;animation:dash 20s linear infinite;stroke-linecap:round;}#mermaid-1773037888618 .error-icon{fill:#f0e7ff;}#mermaid-1773037888618 .error-text{fill:#0f1800;stroke:#0f1800;}#mermaid-1773037888618 .edge-thickness-normal{stroke-width:1px;}#mermaid-1773037888618 .edge-thickness-thick{stroke-width:3.5px;}#mermaid-1773037888618 .edge-pattern-solid{stroke-dasharray:0;}#mermaid-1773037888618 .edge-thickness-invisible{stroke-width:0;fill:none;}#mermaid-1773037888618 .edge-pattern-dashed{stroke-dasharray:3;}#mermaid-1773037888618 .edge-pattern-dotted{stroke-dasharray:2;}#mermaid-1773037888618 .marker{fill:#000000;stroke:#000000;}#mermaid-1773037888618 .marker.cross{stroke:#000000;}#mermaid-1773037888618 svg{font-family:"Comic Neue","Comic Sans MS","Noto Sans SC",cursive,sans-serif;font-size:15px;}#mermaid-1773037888618 p{margin:0;}#mermaid-1773037888618 .label{font-family:"Comic Neue","Comic Sans MS","Noto Sans SC",cursive,sans-serif;color:#000000;}#mermaid-1773037888618 .cluster-label text{fill:#0f1800;}#mermaid-1773037888618 .cluster-label span{color:#0f1800;}#mermaid-1773037888618 .cluster-label span p{background-color:transparent;}#mermaid-1773037888618 .label text,#mermaid-1773037888618 span{fill:#000000;color:#000000;}#mermaid-1773037888618 .node rect,#mermaid-1773037888618 .node circle,#mermaid-1773037888618 .node ellipse,#mermaid-1773037888618 .node polygon,#mermaid-1773037888618 .node path{fill:#ffdff6;stroke:#000000;stroke-width:1px;}#mermaid-1773037888618 .rough-node .label text,#mermaid-1773037888618 .node .label text,#mermaid-1773037888618 .image-shape .label,#mermaid-1773037888618 .icon-shape .label{text-anchor:middle;}#mermaid-1773037888618 .node .katex path{fill:#000;stroke:#000;stroke-width:1px;}#mermaid-1773037888618 .rough-node .label,#mermaid-1773037888618 .node .label,#mermaid-1773037888618 .image-shape .label,#mermaid-1773037888618 .icon-shape .label{text-align:center;}#mermaid-1773037888618 .node.clickable{cursor:pointer;}#mermaid-1773037888618 .root .anchor path{fill:#000000!important;stroke-width:0;stroke:#000000;}#mermaid-1773037888618 .arrowheadPath{fill:#001107;}#mermaid-1773037888618 .edgePath .path{stroke:#000000;stroke-width:2.0px;}#mermaid-1773037888618 .flowchart-link{stroke:#000000;fill:none;}#mermaid-1773037888618 .edgeLabel{background-color:#dff4ff;text-align:center;}#mermaid-1773037888618 .edgeLabel p{background-color:#dff4ff;}#mermaid-1773037888618 .edgeLabel rect{opacity:0.5;background-color:#dff4ff;fill:#dff4ff;}#mermaid-1773037888618 .labelBkg{background-color:rgba(223, 244, 255, 0.5);}#mermaid-1773037888618 .cluster rect{fill:#f0e7ff;stroke:hsl(262.5, 60%, 85.2941176471%);stroke-width:1px;}#mermaid-1773037888618 .cluster text{fill:#0f1800;}#mermaid-1773037888618 .cluster span{color:#0f1800;}#mermaid-1773037888618 div.mermaidTooltip{position:absolute;text-align:center;max-width:200px;padding:2px;font-family:"Comic Neue","Comic Sans MS","Noto Sans SC",cursive,sans-serif;font-size:12px;background:#f0e7ff;border:1px solid hsl(262.5, 60%, 85.2941176471%);border-radius:2px;pointer-events:none;z-index:100;}#mermaid-1773037888618 .flowchartTitleText{text-anchor:middle;font-size:18px;fill:#000000;}#mermaid-1773037888618 rect.text{fill:none;stroke-width:0;}#mermaid-1773037888618 .icon-shape,#mermaid-1773037888618 .image-shape{background-color:#dff4ff;text-align:center;}#mermaid-1773037888618 .icon-shape p,#mermaid-1773037888618 .image-shape p{background-color:#dff4ff;padding:2px;}#mermaid-1773037888618 .icon-shape rect,#mermaid-1773037888618 .image-shape rect{opacity:0.5;background-color:#dff4ff;fill:#dff4ff;}#mermaid-1773037888618 .label-icon{display:inline-block;height:1em;overflow:visible;vertical-align:-0.125em;}#mermaid-1773037888618 .node .label-icon path{fill:currentColor;stroke:revert;stroke-width:revert;}#mermaid-1773037888618 .node rect,#mermaid-1773037888618 .node polygon{fill:#ffdff6!important;stroke:#000000!important;stroke-width:3px!important;rx:20px!important;ry:20px!important;filter:drop-shadow(4px 4px 0px rgba(0,0,0,0.2));}#mermaid-1773037888618 .node circle{fill:#ffdff6!important;stroke:#000000!important;stroke-width:3px!important;filter:drop-shadow(3px 3px 0px rgba(0,0,0,0.15));}#mermaid-1773037888618 .node .label{font-family:"Comic Neue","Comic Sans MS","Noto Sans SC",cursive,sans-serif;font-weight:600;fill:#000000!important;font-size:15px;}#mermaid-1773037888618 .node:nth-child(2n) rect,#mermaid-1773037888618 .node:nth-child(2n) circle,#mermaid-1773037888618 .node:nth-child(2n) polygon{fill:#dff4ff!important;}#mermaid-1773037888618 .node:nth-child(3n) rect,#mermaid-1773037888618 .node:nth-child(3n) circle,#mermaid-1773037888618 .node:nth-child(3n) polygon{fill:#f0e7ff!important;}#mermaid-1773037888618 .node:nth-child(5n) rect,#mermaid-1773037888618 .node:nth-child(5n) circle,#mermaid-1773037888618 .node:nth-child(5n) polygon{fill:#fff4e6!important;}#mermaid-1773037888618 .node:nth-child(7n) rect,#mermaid-1773037888618 .node:nth-child(7n) circle,#mermaid-1773037888618 .node:nth-child(7n) polygon{fill:#e7f9f5!important;}#mermaid-1773037888618 .edgePath .path{stroke:#000000!important;stroke-width:3px!important;stroke-linecap:round;stroke-linejoin:round;}#mermaid-1773037888618 .arrowheadPath{fill:#000000!important;stroke:#000000!important;stroke-width:2px!important;}#mermaid-1773037888618 .edgeLabel{color:#000000!important;font-family:"Comic Neue","Comic Sans MS","Noto Sans SC",cursive,sans-serif;font-size:14px;font-weight:600;}#mermaid-1773037888618 .edgeLabel rect{fill:#ffffff!important;stroke:#000000!important;stroke-width:2px!important;rx:12px!important;filter:drop-shadow(2px 2px 0px rgba(0,0,0,0.1));}#mermaid-1773037888618 .actor{fill:#ffdff6!important;stroke:#000000!important;stroke-width:3px!important;rx:20px!important;ry:20px!important;filter:drop-shadow(4px 4px 0px rgba(0,0,0,0.2));}#mermaid-1773037888618 .actor:nth-child(2n){fill:#dff4ff!important;}#mermaid-1773037888618 .actor:nth-child(3n){fill:#f0e7ff!important;}#mermaid-1773037888618 .actor:nth-child(4n){fill:#fff4e6!important;}#mermaid-1773037888618 .actor text{fill:#000000!important;font-family:"Comic Neue","Comic Sans MS","Noto Sans SC",cursive,sans-serif;font-weight:700;}#mermaid-1773037888618 .actor-line,#mermaid-1773037888618 g line.actor-line,#mermaid-1773037888618 g path.actor-line{stroke:#000000!important;stroke-width:2px!important;stroke-dasharray:6 3!important;}#mermaid-1773037888618 .activation0,#mermaid-1773037888618 .activation1,#mermaid-1773037888618 .activation2{fill:#f0e7ff!important;stroke:#000000!important;stroke-width:3px!important;rx:8px!important;filter:drop-shadow(3px 3px 0px rgba(0,0,0,0.15));}#mermaid-1773037888618 .messageLine0,#mermaid-1773037888618 .messageLine1{stroke:#000000!important;stroke-width:3px!important;stroke-linecap:round;}#mermaid-1773037888618 .messageText{fill:#000000!important;font-family:"Comic Neue","Comic Sans MS","Noto Sans SC",cursive,sans-serif;font-weight:600;font-size:14px;}#mermaid-1773037888618 #arrowhead path,#mermaid-1773037888618 .arrowheadPath{fill:#000000!important;stroke:#000000!important;}#mermaid-1773037888618 .note{fill:#fff4e6!important;stroke:#000000!important;stroke-width:3px!important;rx:15px!important;ry:15px!important;filter:drop-shadow(4px 4px 0px rgba(0,0,0,0.2));}#mermaid-1773037888618 .noteText{fill:#000000!important;font-family:"Comic Neue","Comic Sans MS","Noto Sans SC",cursive,sans-serif;font-weight:600;}#mermaid-1773037888618 .labelBox{fill:#f0e7ff!important;stroke:#000000!important;stroke-width:3px!important;rx:15px!important;ry:15px!important;filter:drop-shadow(4px 4px 0px rgba(0,0,0,0.2));}#mermaid-1773037888618 .labelText,#mermaid-1773037888618 .loopText{fill:#000000!important;font-family:"Comic Neue","Comic Sans MS","Noto Sans SC",cursive,sans-serif;font-weight:700;}#mermaid-1773037888618 .loopLine{stroke:#000000!important;stroke-width:3px!important;rx:15px!important;}#mermaid-1773037888618 .cluster rect{fill:#dff4ff!important;stroke:#000000!important;stroke-width:3px!important;rx:25px!important;ry:25px!important;filter:drop-shadow(5px 5px 0px rgba(0,0,0,0.15));}#mermaid-1773037888618 .cluster text{fill:#000000!important;font-family:"Comic Neue","Comic Sans MS","Noto Sans SC",cursive,sans-serif;font-weight:700;}#mermaid-1773037888618 .statediagram-state rect,#mermaid-1773037888618 .statediagram-state .state-inner{fill:#ffdff6!important;stroke:#000000!important;stroke-width:3px!important;rx:20px!important;filter:drop-shadow(4px 4px 0px rgba(0,0,0,0.2));}#mermaid-1773037888618 .statediagram-state:nth-child(2n) rect,#mermaid-1773037888618 .statediagram-state:nth-child(2n) .state-inner{fill:#dff4ff!important;}#mermaid-1773037888618 .statediagram-state:nth-child(3n) rect,#mermaid-1773037888618 .statediagram-state:nth-child(3n) .state-inner{fill:#f0e7ff!important;}#mermaid-1773037888618 .statediagram-state:nth-child(5n) rect,#mermaid-1773037888618 .statediagram-state:nth-child(5n) .state-inner{fill:#fff4e6!important;}#mermaid-1773037888618 .stateLabel text{fill:#000000!important;font-family:"Comic Neue","Comic Sans MS","Noto Sans SC",cursive,sans-serif;font-weight:700;}#mermaid-1773037888618 .transition{stroke:#000000!important;stroke-width:3px!important;}#mermaid-1773037888618 .classGroup rect{fill:#ffdff6!important;stroke:#000000!important;stroke-width:3px!important;rx:20px!important;filter:drop-shadow(4px 4px 0px rgba(0,0,0,0.2));}#mermaid-1773037888618 .classGroup:nth-child(2n) rect{fill:#dff4ff!important;}#mermaid-1773037888618 .classGroup:nth-child(3n) rect{fill:#f0e7ff!important;}#mermaid-1773037888618 .classGroup line{stroke:#000000!important;stroke-width:2px!important;}#mermaid-1773037888618 .classLabel .label{fill:#000000!important;font-family:"Comic Neue","Comic Sans MS","Noto Sans SC",cursive,sans-serif;font-weight:700;}#mermaid-1773037888618 .classLabel .box{stroke:#000000!important;stroke-width:3px!important;rx:20px!important;}#mermaid-1773037888618 .relationshipLine{stroke:#000000!important;stroke-width:3px!important;}#mermaid-1773037888618 .relationshipLabelBox{fill:#ffffff!important;stroke:#000000!important;stroke-width:2px!important;rx:10px!important;}#mermaid-1773037888618 .er.entityBox{fill:#dff4ff!important;stroke:#000000!important;stroke-width:3px!important;rx:20px!important;filter:drop-shadow(4px 4px 0px rgba(0,0,0,0.2));}#mermaid-1773037888618 .er.entityBox:nth-child(2n){fill:#ffdff6!important;}#mermaid-1773037888618 .er.entityBox:nth-child(3n){fill:#f0e7ff!important;}#mermaid-1773037888618 .er.entityLabel,#mermaid-1773037888618 .er.relationshipLabel{fill:#000000!important;font-family:"Comic Neue","Comic Sans MS","Noto Sans SC",cursive,sans-serif;font-weight:700;}#mermaid-1773037888618 .er .relationshipLine{stroke:#000000!important;stroke-width:3px!important;}#mermaid-1773037888618 .er .relationshipLabelBox{fill:#ffffff!important;stroke:#000000!important;stroke-width:2px!important;rx:10px!important;}#mermaid-1773037888618 .titleText{fill:#000000!important;font-family:"Comic Neue","Comic Sans MS","Noto Sans SC",cursive,sans-serif;font-weight:700;font-size:20px;}#mermaid-1773037888618 .grid .tick text{fill:#000000!important;font-family:"Comic Neue","Comic Sans MS","Noto Sans SC",cursive,sans-serif;font-size:13px;}#mermaid-1773037888618 .grid line{stroke:#e0e0e0!important;stroke-width:1px!important;opacity:0.5;}#mermaid-1773037888618 .taskText{fill:#000000!important;font-family:"Comic Neue","Comic Sans MS","Noto Sans SC",cursive,sans-serif;font-weight:600;}#mermaid-1773037888618 .taskTextOutsideRight,#mermaid-1773037888618 .taskTextOutsideLeft{fill:#000000!important;font-family:"Comic Neue","Comic Sans MS","Noto Sans SC",cursive,sans-serif;font-weight:600;}#mermaid-1773037888618 .task0,#mermaid-1773037888618 .task1,#mermaid-1773037888618 .task2,#mermaid-1773037888618 .task3{stroke:#000000!important;stroke-width:3px!important;rx:12px!important;}#mermaid-1773037888618 .task0{fill:#ffdff6!important;}#mermaid-1773037888618 .task1{fill:#dff4ff!important;}#mermaid-1773037888618 .task2{fill:#f0e7ff!important;}#mermaid-1773037888618 .task3{fill:#fff4e6!important;}#mermaid-1773037888618 .section0,#mermaid-1773037888618 .section1,#mermaid-1773037888618 .section2,#mermaid-1773037888618 .section3{fill:#000000!important;font-family:"Comic Neue","Comic Sans MS","Noto Sans SC",cursive,sans-serif;font-weight:700;font-size:14px;}#mermaid-1773037888618 .sectionTitle0,#mermaid-1773037888618 .sectionTitle1,#mermaid-1773037888618 .sectionTitle2,#mermaid-1773037888618 .sectionTitle3{fill:#ffffff!important;}#mermaid-1773037888618 .done0,#mermaid-1773037888618 .done1,#mermaid-1773037888618 .done2,#mermaid-1773037888618 .done3{stroke:#22c55e!important;stroke-width:3px!important;fill:#bbf7d0!important;}#mermaid-1773037888618 .active0,#mermaid-1773037888618 .active1,#mermaid-1773037888618 .active2,#mermaid-1773037888618 .active3{stroke:#3b82f6!important;stroke-width:3px!important;fill:#bfdbfe!important;}#mermaid-1773037888618 .crit0,#mermaid-1773037888618 .crit1,#mermaid-1773037888618 .crit2,#mermaid-1773037888618 .crit3{stroke:#ef4444!important;stroke-width:3px!important;fill:#fecaca!important;}#mermaid-1773037888618 .activeCrit0,#mermaid-1773037888618 .activeCrit1,#mermaid-1773037888618 .activeCrit2,#mermaid-1773037888618 .activeCrit3{stroke:#9333ea!important;stroke-width:3px!important;fill:#e9d5ff!important;}#mermaid-1773037888618 .pieCircle{stroke:#000000!important;stroke-width:3px!important;}#mermaid-1773037888618 .pieTitleText{fill:#000000!important;font-family:"Comic Neue","Comic Sans MS","Noto Sans SC",cursive,sans-serif;font-weight:700;font-size:20px;}#mermaid-1773037888618 .slice{stroke:#000000!important;stroke-width:3px!important;filter:drop-shadow(2px 2px 0px rgba(0,0,0,0.1));}#mermaid-1773037888618 .slice:nth-child(1){fill:#ffdff6!important;}#mermaid-1773037888618 .slice:nth-child(2){fill:#dff4ff!important;}#mermaid-1773037888618 .slice:nth-child(3){fill:#f0e7ff!important;}#mermaid-1773037888618 .slice:nth-child(4){fill:#fff4e6!important;}#mermaid-1773037888618 .slice:nth-child(5){fill:#e7f9f5!important;}#mermaid-1773037888618 .slice:nth-child(6){fill:#fef3c7!important;}#mermaid-1773037888618 .pieOuterCircle{stroke:#000000!important;stroke-width:3px!important;fill:none;}#mermaid-1773037888618 .legend text{fill:#000000!important;font-family:"Comic Neue","Comic Sans MS","Noto Sans SC",cursive,sans-serif;font-weight:600;font-size:14px;}#mermaid-1773037888618 .legend rect{stroke:#000000!important;stroke-width:2px!important;rx:6px!important;}#mermaid-1773037888618 .journey-section{stroke:#000000!important;stroke-width:3px!important;fill:#f0e7ff!important;rx:15px!important;}#mermaid-1773037888618 .task-section{fill:#ffdff6!important;stroke:#000000!important;stroke-width:3px!important;rx:12px!important;}#mermaid-1773037888618 .task-section:nth-child(2n){fill:#dff4ff!important;}#mermaid-1773037888618 .task-section:nth-child(3n){fill:#fff4e6!important;}#mermaid-1773037888618 .line-plot-0 path{stroke:#ec4899!important;stroke-width:4px!important;stroke-linecap:round;stroke-linejoin:round;}#mermaid-1773037888618 .line-plot-1 path{stroke:#3b82f6!important;stroke-width:4px!important;stroke-linecap:round;stroke-linejoin:round;}#mermaid-1773037888618 .line-plot-2 path{stroke:#9333ea!important;stroke-width:4px!important;stroke-linecap:round;stroke-linejoin:round;}#mermaid-1773037888618 .bar-plot-0 rect{fill:#fce7f3!important;stroke:#ec4899!important;stroke-width:3px!important;rx:8px!important;}#mermaid-1773037888618 .bar-plot-1 rect{fill:#dbeafe!important;stroke:#3b82f6!important;stroke-width:3px!important;rx:8px!important;}#mermaid-1773037888618 .bar-plot-2 rect{fill:#f3e8ff!important;stroke:#9333ea!important;stroke-width:3px!important;rx:8px!important;}#mermaid-1773037888618 .ticks path{stroke:#000000!important;stroke-width:2px!important;}#mermaid-1773037888618 .chart-title text{fill:#000000!important;font-weight:700!important;font-size:20px!important;font-family:"Comic Neue","Comic Sans MS","Noto Sans SC",cursive,sans-serif;}#mermaid-1773037888618 .left-axis .label text,#mermaid-1773037888618 .bottom-axis .label text{fill:#000000!important;font-size:14px!important;font-family:"Comic Neue","Comic Sans MS","Noto Sans SC",cursive,sans-serif;font-weight:600;}#mermaid-1773037888618 .left-axis .title text,#mermaid-1773037888618 .bottom-axis .title text{fill:#000000!important;font-size:16px!important;font-family:"Comic Neue","Comic Sans MS","Noto Sans SC",cursive,sans-serif;font-weight:700;}#mermaid-1773037888618 .legend text{fill:#000000!important;font-size:14px!important;font-family:"Comic Neue","Comic Sans MS","Noto Sans SC",cursive,sans-serif;font-weight:600;}#mermaid-1773037888618 .legend rect{stroke:#000000!important;stroke-width:2px!important;rx:6px!important;}#mermaid-1773037888618 .commit-id,#mermaid-1773037888618 .commit-msg,#mermaid-1773037888618 .branch-label{fill:#000000!important;font-family:"Comic Neue","Comic Sans MS","Noto Sans SC",cursive,sans-serif;font-weight:600;}#mermaid-1773037888618 .commit{stroke:#000000!important;stroke-width:3px!important;}#mermaid-1773037888618 .commit0{fill:#ffdff6!important;}#mermaid-1773037888618 .commit1{fill:#dff4ff!important;}#mermaid-1773037888618 .commit2{fill:#f0e7ff!important;}#mermaid-1773037888618 .commit3{fill:#fff4e6!important;}#mermaid-1773037888618 .commit-highlight-outer{fill:#fbbf24;opacity:0.3;}#mermaid-1773037888618 .commit-highlight-inner{fill:#fbbf24;opacity:0.5;stroke:#f59e0b;}#mermaid-1773037888618 .branch path{stroke-width:3px!important;stroke-linecap:round;stroke-linejoin:round;}#mermaid-1773037888618 .branch.branch0{stroke:#ec4899!important;}#mermaid-1773037888618 .branch.branch1{stroke:#3b82f6!important;}#mermaid-1773037888618 .branch.branch2{stroke:#9333ea!important;}#mermaid-1773037888618 .branch.branch3{stroke:#f59e0b!important;}#mermaid-1773037888618 .timeline-event{fill:#ffdff6!important;stroke:#000000!important;stroke-width:3px!important;rx:15px!important;filter:drop-shadow(3px 3px 0px rgba(0,0,0,0.15));}#mermaid-1773037888618 .timeline-event:nth-child(2n){fill:#dff4ff!important;}#mermaid-1773037888618 .timeline-event:nth-child(3n){fill:#f0e7ff!important;}#mermaid-1773037888618 .timeline-event-text{fill:#000000!important;font-family:"Comic Neue","Comic Sans MS","Noto Sans SC",cursive,sans-serif;font-weight:600;}#mermaid-1773037888618 :root{--mermaid-font-family:"trebuchet ms",verdana,arial,sans-serif;}</style><g><marker id="mermaid-1773037888618_flowchart-v2-pointEnd" class="marker flowchart-v2" viewBox="0 0 10 10" refX="5" refY="5" markerUnits="userSpaceOnUse" markerWidth="8" markerHeight="8" orient="auto"><path d="M 0 0 L 10 5 L 0 10 z" class="arrowMarkerPath" style="stroke-width: 1; stroke-dasharray: 1, 0;"/></marker><marker id="mermaid-1773037888618_flowchart-v2-pointStart" class="marker flowchart-v2" viewBox="0 0 10 10" refX="4.5" refY="5" markerUnits="userSpaceOnUse" markerWidth="8" markerHeight="8" orient="auto"><path d="M 0 5 L 10 10 L 10 0 z" class="arrowMarkerPath" style="stroke-width: 1; stroke-dasharray: 1, 0;"/></marker><marker id="mermaid-1773037888618_flowchart-v2-circleEnd" class="marker flowchart-v2" viewBox="0 0 10 10" refX="11" refY="5" markerUnits="userSpaceOnUse" markerWidth="11" markerHeight="11" orient="auto"><circle cx="5" cy="5" r="5" class="arrowMarkerPath" style="stroke-width: 1; stroke-dasharray: 1, 0;"/></marker><marker id="mermaid-1773037888618_flowchart-v2-circleStart" class="marker flowchart-v2" viewBox="0 0 10 10" refX="-1" refY="5" markerUnits="userSpaceOnUse" markerWidth="11" markerHeight="11" orient="auto"><circle cx="5" cy="5" r="5" class="arrowMarkerPath" style="stroke-width: 1; stroke-dasharray: 1, 0;"/></marker><marker id="mermaid-1773037888618_flowchart-v2-crossEnd" class="marker cross flowchart-v2" viewBox="0 0 11 11" refX="12" refY="5.2" markerUnits="userSpaceOnUse" markerWidth="11" markerHeight="11" orient="auto"><path d="M 1,1 l 9,9 M 10,1 l -9,9" class="arrowMarkerPath" style="stroke-width: 2; stroke-dasharray: 1, 0;"/></marker><marker id="mermaid-1773037888618_flowchart-v2-crossStart" class="marker cross flowchart-v2" viewBox="0 0 11 11" refX="-1" refY="5.2" markerUnits="userSpaceOnUse" markerWidth="11" markerHeight="11" orient="auto"><path d="M 1,1 l 9,9 M 10,1 l -9,9" class="arrowMarkerPath" style="stroke-width: 2; stroke-dasharray: 1, 0;"/></marker><g class="root"><g class="clusters"/><g class="edgePaths"><path d="M230.746,46L230.663,50.083C230.579,54.167,230.413,62.333,230.329,69.917C230.246,77.5,230.246,84.5,230.246,88L230.246,91.5" id="L_Start_Cron_0" class="edge-thickness-normal edge-pattern-solid edge-thickness-normal edge-pattern-solid flowchart-link" style=";" data-edge="true" data-et="edge" data-id="L_Start_Cron_0" data-points="W3sieCI6MjMwLjc0NjA5Mzc1LCJ5Ijo0Nn0seyJ4IjoyMzAuMjQ2MDkzNzUsInkiOjcwLjV9LHsieCI6MjMwLjI0NjA5Mzc1LCJ5Ijo5NS41fV0=" marker-end="url(#mermaid-1773037888618_flowchart-v2-pointEnd)"/><path d="M230.246,148L230.246,152.167C230.246,156.333,230.246,164.667,230.246,172.333C230.246,180,230.246,187,230.246,190.5L230.246,194" id="L_Cron_WS_0" class="edge-thickness-normal edge-pattern-solid edge-thickness-normal edge-pattern-solid flowchart-link" style=";" data-edge="true" data-et="edge" data-id="L_Cron_WS_0" data-points="W3sieCI6MjMwLjI0NjA5Mzc1LCJ5IjoxNDh9LHsieCI6MjMwLjI0NjA5Mzc1LCJ5IjoxNzN9LHsieCI6MjMwLjI0NjA5Mzc1LCJ5IjoxOTh9XQ==" marker-end="url(#mermaid-1773037888618_flowchart-v2-pointEnd)"/><path d="M167.012,250.5L156.975,254.667C146.938,258.833,126.863,267.167,116.826,274.833C106.789,282.5,106.789,289.5,106.789,293L106.789,296.5" id="L_WS_Task1_0" class="edge-thickness-normal edge-pattern-solid edge-thickness-normal edge-pattern-solid flowchart-link" style=";" data-edge="true" data-et="edge" data-id="L_WS_Task1_0" data-points="W3sieCI6MTY3LjAxMjAwNDU3MzE3MDc0LCJ5IjoyNTAuNX0seyJ4IjoxMDYuNzg5MDYyNSwieSI6Mjc1LjV9LHsieCI6MTA2Ljc4OTA2MjUsInkiOjMwMC41fV0=" marker-end="url(#mermaid-1773037888618_flowchart-v2-pointEnd)"/><path d="M293.48,250.5L303.517,254.667C313.554,258.833,333.629,267.167,343.666,274.833C353.703,282.5,353.703,289.5,353.703,293L353.703,296.5" id="L_WS_Task2_0" class="edge-thickness-normal edge-pattern-solid edge-thickness-normal edge-pattern-solid flowchart-link" style=";" data-edge="true" data-et="edge" data-id="L_WS_Task2_0" data-points="W3sieCI6MjkzLjQ4MDE4MjkyNjgyOTMsInkiOjI1MC41fSx7IngiOjM1My43MDMxMjUsInkiOjI3NS41fSx7IngiOjM1My43MDMxMjUsInkiOjMwMC41fV0=" marker-end="url(#mermaid-1773037888618_flowchart-v2-pointEnd)"/><path d="M106.789,353L106.789,357.167C106.789,361.333,106.789,369.667,106.789,377.333C106.789,385,106.789,392,106.789,395.5L106.789,399" id="L_Task1_W_0" class="edge-thickness-normal edge-pattern-solid edge-thickness-normal edge-pattern-solid flowchart-link" style=";" data-edge="true" data-et="edge" data-id="L_Task1_W_0" data-points="W3sieCI6MTA2Ljc4OTA2MjUsInkiOjM1M30seyJ4IjoxMDYuNzg5MDYyNSwieSI6Mzc4fSx7IngiOjEwNi43ODkwNjI1LCJ5Ijo0MDN9XQ==" marker-end="url(#mermaid-1773037888618_flowchart-v2-pointEnd)"/><path d="M353.703,353L353.703,357.167C353.703,361.333,353.703,369.667,353.703,377.333C353.703,385,353.703,392,353.703,395.5L353.703,399" id="L_Task2_C_0" class="edge-thickness-normal edge-pattern-solid edge-thickness-normal edge-pattern-solid flowchart-link" style=";" data-edge="true" data-et="edge" data-id="L_Task2_C_0" data-points="W3sieCI6MzUzLjcwMzEyNSwieSI6MzUzfSx7IngiOjM1My43MDMxMjUsInkiOjM3OH0seyJ4IjozNTMuNzAzMTI1LCJ5Ijo0MDN9XQ==" marker-end="url(#mermaid-1773037888618_flowchart-v2-pointEnd)"/><path d="M106.789,455.5L106.789,459.667C106.789,463.833,106.789,472.167,116.21,480.244C125.632,488.322,144.475,496.144,153.896,500.055L163.318,503.966" id="L_W_LLM_0" class="edge-thickness-normal edge-pattern-solid edge-thickness-normal edge-pattern-solid flowchart-link" style=";" data-edge="true" data-et="edge" data-id="L_W_LLM_0" data-points="W3sieCI6MTA2Ljc4OTA2MjUsInkiOjQ1NS41fSx7IngiOjEwNi43ODkwNjI1LCJ5Ijo0ODAuNX0seyJ4IjoxNjcuMDEyMDA0NTczMTcwNzQsInkiOjUwNS41fV0=" marker-end="url(#mermaid-1773037888618_flowchart-v2-pointEnd)"/><path d="M353.703,455.5L353.703,459.667C353.703,463.833,353.703,472.167,344.282,480.244C334.86,488.322,316.017,496.144,306.596,500.055L297.175,503.966" id="L_C_LLM_0" class="edge-thickness-normal edge-pattern-solid edge-thickness-normal edge-pattern-solid flowchart-link" style=";" data-edge="true" data-et="edge" data-id="L_C_LLM_0" data-points="W3sieCI6MzUzLjcwMzEyNSwieSI6NDU1LjV9LHsieCI6MzUzLjcwMzEyNSwieSI6NDgwLjV9LHsieCI6MjkzLjQ4MDE4MjkyNjgyOTMsInkiOjUwNS41fV0=" marker-end="url(#mermaid-1773037888618_flowchart-v2-pointEnd)"/><path d="M230.246,558L230.246,562.167C230.246,566.333,230.246,574.667,230.246,582.333C230.246,590,230.246,597,230.246,600.5L230.246,604" id="L_LLM_Generate_0" class="edge-thickness-normal edge-pattern-solid edge-thickness-normal edge-pattern-solid flowchart-link" style=";" data-edge="true" data-et="edge" data-id="L_LLM_Generate_0" data-points="W3sieCI6MjMwLjI0NjA5Mzc1LCJ5Ijo1NTh9LHsieCI6MjMwLjI0NjA5Mzc1LCJ5Ijo1ODN9LHsieCI6MjMwLjI0NjA5Mzc1LCJ5Ijo2MDh9XQ==" marker-end="url(#mermaid-1773037888618_flowchart-v2-pointEnd)"/><path d="M230.246,660.5L230.246,664.667C230.246,668.833,230.246,677.167,230.246,684.833C230.246,692.5,230.246,699.5,230.246,703L230.246,706.5" id="L_Generate_GW_0" class="edge-thickness-normal edge-pattern-solid edge-thickness-normal edge-pattern-solid flowchart-link" style=";" data-edge="true" data-et="edge" data-id="L_Generate_GW_0" data-points="W3sieCI6MjMwLjI0NjA5Mzc1LCJ5Ijo2NjAuNX0seyJ4IjoyMzAuMjQ2MDkzNzUsInkiOjY4NS41fSx7IngiOjIzMC4yNDYwOTM3NSwieSI6NzEwLjV9XQ==" marker-end="url(#mermaid-1773037888618_flowchart-v2-pointEnd)"/><path d="M230.246,763L230.246,767.167C230.246,771.333,230.246,779.667,230.246,787.333C230.246,795,230.246,802,230.246,805.5L230.246,809" id="L_GW_TG_0" class="edge-thickness-normal edge-pattern-solid edge-thickness-normal edge-pattern-solid flowchart-link" style=";" data-edge="true" data-et="edge" data-id="L_GW_TG_0" data-points="W3sieCI6MjMwLjI0NjA5Mzc1LCJ5Ijo3NjN9LHsieCI6MjMwLjI0NjA5Mzc1LCJ5Ijo3ODh9LHsieCI6MjMwLjI0NjA5Mzc1LCJ5Ijo4MTN9XQ==" marker-end="url(#mermaid-1773037888618_flowchart-v2-pointEnd)"/><path d="M230.246,865.5L230.246,869.667C230.246,873.833,230.246,882.167,230.246,889.833C230.246,897.5,230.246,904.5,230.246,908L230.246,911.5" id="L_TG_User_0" class="edge-thickness-normal edge-pattern-solid edge-thickness-normal edge-pattern-solid flowchart-link" style=";" data-edge="true" data-et="edge" data-id="L_TG_User_0" data-points="W3sieCI6MjMwLjI0NjA5Mzc1LCJ5Ijo4NjUuNX0seyJ4IjoyMzAuMjQ2MDkzNzUsInkiOjg5MC41fSx7IngiOjIzMC4yNDYwOTM3NSwieSI6OTE1LjV9XQ==" marker-end="url(#mermaid-1773037888618_flowchart-v2-pointEnd)"/></g><g class="edgeLabels"><g class="edgeLabel"><g class="label" data-id="L_Start_Cron_0" transform="translate(0, 0)"><foreignObject width="0" height="0"><div xmlns="http://www.w3.org/1999/xhtml" class="labelBkg" style="display: table-cell; white-space: nowrap; line-height: 1.5; max-width: 200px; text-align: center;"><span class="edgeLabel"></span></div></foreignObject></g></g><g class="edgeLabel"><g class="label" data-id="L_Cron_WS_0" transform="translate(0, 0)"><foreignObject width="0" height="0"><div xmlns="http://www.w3.org/1999/xhtml" class="labelBkg" style="display: table-cell; white-space: nowrap; line-height: 1.5; max-width: 200px; text-align: center;"><span class="edgeLabel"></span></div></foreignObject></g></g><g class="edgeLabel"><g class="label" data-id="L_WS_Task1_0" transform="translate(0, 0)"><foreignObject width="0" height="0"><div xmlns="http://www.w3.org/1999/xhtml" class="labelBkg" style="display: table-cell; white-space: nowrap; line-height: 1.5; max-width: 200px; text-align: center;"><span class="edgeLabel"></span></div></foreignObject></g></g><g class="edgeLabel"><g class="label" data-id="L_WS_Task2_0" transform="translate(0, 0)"><foreignObject width="0" height="0"><div xmlns="http://www.w3.org/1999/xhtml" class="labelBkg" style="display: table-cell; white-space: nowrap; line-height: 1.5; max-width: 200px; text-align: center;"><span class="edgeLabel"></span></div></foreignObject></g></g><g class="edgeLabel"><g class="label" data-id="L_Task1_W_0" transform="translate(0, 0)"><foreignObject width="0" height="0"><div xmlns="http://www.w3.org/1999/xhtml" class="labelBkg" style="display: table-cell; white-space: nowrap; line-height: 1.5; max-width: 200px; text-align: center;"><span class="edgeLabel"></span></div></foreignObject></g></g><g class="edgeLabel"><g class="label" data-id="L_Task2_C_0" transform="translate(0, 0)"><foreignObject width="0" height="0"><div xmlns="http://www.w3.org/1999/xhtml" class="labelBkg" style="display: table-cell; white-space: nowrap; line-height: 1.5; max-width: 200px; text-align: center;"><span class="edgeLabel"></span></div></foreignObject></g></g><g class="edgeLabel"><g class="label" data-id="L_W_LLM_0" transform="translate(0, 0)"><foreignObject width="0" height="0"><div xmlns="http://www.w3.org/1999/xhtml" class="labelBkg" style="display: table-cell; white-space: nowrap; line-height: 1.5; max-width: 200px; text-align: center;"><span class="edgeLabel"></span></div></foreignObject></g></g><g class="edgeLabel"><g class="label" data-id="L_C_LLM_0" transform="translate(0, 0)"><foreignObject width="0" height="0"><div xmlns="http://www.w3.org/1999/xhtml" class="labelBkg" style="display: table-cell; white-space: nowrap; line-height: 1.5; max-width: 200px; text-align: center;"><span class="edgeLabel"></span></div></foreignObject></g></g><g class="edgeLabel"><g class="label" data-id="L_LLM_Generate_0" transform="translate(0, 0)"><foreignObject width="0" height="0"><div xmlns="http://www.w3.org/1999/xhtml" class="labelBkg" style="display: table-cell; white-space: nowrap; line-height: 1.5; max-width: 200px; text-align: center;"><span class="edgeLabel"></span></div></foreignObject></g></g><g class="edgeLabel"><g class="label" data-id="L_Generate_GW_0" transform="translate(0, 0)"><foreignObject width="0" height="0"><div xmlns="http://www.w3.org/1999/xhtml" class="labelBkg" style="display: table-cell; white-space: nowrap; line-height: 1.5; max-width: 200px; text-align: center;"><span class="edgeLabel"></span></div></foreignObject></g></g><g class="edgeLabel"><g class="label" data-id="L_GW_TG_0" transform="translate(0, 0)"><foreignObject width="0" height="0"><div xmlns="http://www.w3.org/1999/xhtml" class="labelBkg" style="display: table-cell; white-space: nowrap; line-height: 1.5; max-width: 200px; text-align: center;"><span class="edgeLabel"></span></div></foreignObject></g></g><g class="edgeLabel"><g class="label" data-id="L_TG_User_0" transform="translate(0, 0)"><foreignObject width="0" height="0"><div xmlns="http://www.w3.org/1999/xhtml" class="labelBkg" style="display: table-cell; white-space: nowrap; line-height: 1.5; max-width: 200px; text-align: center;"><span class="edgeLabel"></span></div></foreignObject></g></g></g><g class="nodes"><g class="node default" id="flowchart-Start-0" transform="translate(230.24609375, 26.75)"><g class="basic label-container outer-path"><path d="M-39.4296875 -18.75 C-21.585448073848784 -18.75, -3.741208647697569 -18.75, 39.4296875 -18.75 C39.4296875 -18.75, 39.4296875 -18.75, 39.4296875 -18.75 C39.82722958554519 -18.737251599085294, 40.22477167109038 -18.724503198170588, 40.631004124638366 -18.711476114068805 C40.89137510803751 -18.686358438442213, 41.15174609143665 -18.66124076281562, 41.827384281584486 -18.596062759185866 C42.256814447144635 -18.526635820298775, 42.68624461270478 -18.45720888141168, 43.01391178815073 -18.40423419358248 C43.37068827285364 -18.322802289133183, 43.72746475755655 -18.241370384683883, 44.18571094830326 -18.136778681981802 C44.6409545959364 -18.001664756986955, 45.09619824356954 -17.86655083199211, 45.33796658794289 -17.794795256450037 C45.744406813425705 -17.645221496380103, 46.15084703890852 -17.495647736310165, 46.46594384148826 -17.37968920023791 C46.80129224580115 -17.23124040940556, 47.13664065011404 -17.082791618573214, 47.56500760845421 -16.89316627317036 C47.97607199599163 -16.678714245491392, 48.387136383529054 -16.46426221781243, 48.63064160007383 -16.337225702313553 C49.00060935284631 -16.11294907641103, 49.37057710561879 -15.888672450508507, 49.658466897697785 -15.714151966722014 C50.03885368252237 -15.448810612306902, 50.41924046734696 -15.18346925789179, 50.6442599467103 -15.026505410024187 C50.877986265226475 -14.840114890726085, 51.11171258374265 -14.653724371427982, 51.58396991202103 -14.277111719421272 C51.82482177065923 -14.058376433997035, 52.06567362929742 -13.839641148572799, 52.47373532381537 -13.469050314332392 C52.735567111473905 -13.198687496785402, 52.99739889913244 -12.928324679238411, 53.309899945162165 -12.605641692399693 C53.59690489341244 -12.268509349140722, 53.88390984166272 -11.93137700588175, 54.08902779627556 -11.690433784851255 C54.28181937321732 -11.432110635423276, 54.474610950159075 -11.1737874859953, 54.80791727369292 -10.727187377290685 C55.06638796226177 -10.330106990550862, 55.32485865083062 -9.933026603811038, 55.46361430635024 -9.719860655822346 C55.61837413857085 -9.445068902582321, 55.77313397079146 -9.170277149342297, 56.053424494493754 -8.672592942015662 C56.205831148655406 -8.356117263668981, 56.358237802817065 -8.0396415853223, 56.57492418154648 -7.589687683544889 C56.74270833960264 -7.175257569260147, 56.91049249765881 -6.760827454975406, 57.025970413433 -6.475594770399527 C57.16904005520551 -6.04469180443252, 57.31210969697802 -5.613788838465512, 57.40470974443738 -5.334892249331864 C57.50730579472518 -4.943649044175038, 57.60990184501297 -4.552405839018212, 57.709585853409195 -4.172267511680897 C57.77304041272912 -3.846441760698971, 57.83649497204903 -3.5206160097170445, 57.93934593902094 -2.9924980318758676 C57.99583248238479 -2.5543995560755044, 58.05231902574864 -2.116301080275141, 58.09304586779747 -1.8004317357690365 C58.10871623417761 -1.5563531305063703, 58.124386600557735 -1.312274525243704, 58.1700540537629 -0.6009670794685343 C58.1700540537629 -0.29262981909246477, 58.1700540537629 0.015707441283604795, 58.1700540537629 0.6009670794685298 C58.15419111667146 0.8480451290000246, 58.13832817958002 1.0951231785315194, 58.09304586779747 1.8004317357690236 C58.03915378022085 2.218408124816875, 57.98526169264423 2.6363845138647264, 57.93934593902094 2.9924980318758543 C57.87115816642295 3.3426278326756855, 57.802970393824964 3.6927576334755168, 57.709585853409195 4.172267511680893 C57.598814235755384 4.59468769851763, 57.48804261810158 5.017107885354366, 57.40470974443738 5.334892249331851 C57.31506873732569 5.604876680397387, 57.22542773021399 5.874861111462923, 57.02597041343301 6.475594770399514 C56.88410865105875 6.825996066174511, 56.742246888684505 7.176397361949508, 56.574924181546486 7.589687683544883 C56.45300016523927 7.842865512162852, 56.331076148932056 8.09604334078082, 56.053424494493754 8.672592942015656 C55.842237083463026 9.047577575344993, 55.6310496724323 9.422562208674332, 55.46361430635024 9.719860655822343 C55.32737110551377 9.929166798729169, 55.191127904677295 10.138472941635994, 54.80791727369292 10.727187377290674 C54.561170714603094 11.057805287397073, 54.314424155513265 11.38842319750347, 54.08902779627556 11.690433784851251 C53.906030933070596 11.905392313188297, 53.72303406986563 12.120350841525344, 53.30989994516217 12.605641692399683 C52.97801243998028 12.94834278997091, 52.6461249347984 13.291043887542138, 52.473735323815376 13.469050314332389 C52.16842339657306 13.746326528542928, 51.863111469330754 14.02360274275347, 51.58396991202105 14.27711171942126 C51.22333946577458 14.564704903523603, 50.86270901952811 14.852298087625947, 50.64425994671031 15.026505410024184 C50.289239901937684 15.274152024687522, 49.93421985716506 15.52179863935086, 49.65846689769779 15.714151966722007 C49.257712923392575 15.957091381037593, 48.856958949087364 16.20003079535318, 48.63064160007383 16.337225702313553 C48.31634299544945 16.50119508302823, 48.00204439082507 16.665164463742904, 47.565007608454216 16.89316627317036 C47.211003840623 17.04987324004057, 46.85700007279179 17.20658020691078, 46.46594384148827 17.379689200237905 C46.06234201384056 17.528218403666656, 45.658740186192865 17.676747607095407, 45.3379665879429 17.794795256450033 C44.97947856721266 17.90119261926075, 44.62099054648242 18.007589982071465, 44.18571094830328 18.1367786819818 C43.75869152136815 18.234243079617563, 43.33167209443302 18.331707477253328, 43.013911788150736 18.404234193582475 C42.67492792456618 18.459038475787704, 42.33594406098161 18.51384275799293, 41.8273842815845 18.596062759185862 C41.408042303586335 18.63651617547083, 40.98870032558818 18.6769695917558, 40.631004124638366 18.711476114068805 C40.3092213160286 18.72179506242868, 39.98743850741884 18.732114010788553, 39.4296875 18.75 C39.4296875 18.75, 39.4296875 18.75, 39.4296875 18.75 C20.879166830301727 18.75, 2.328646160603455 18.75, -39.4296875 18.75 C-39.86793425723763 18.735946279490953, -40.30618101447526 18.721892558981907, -40.63100412463836 18.711476114068805 C-40.96866780985406 18.678902104456043, -41.306331495069756 18.64632809484328, -41.82738428158449 18.596062759185862 C-42.10320798848247 18.55146972129939, -42.37903169538044 18.506876683412923, -43.01391178815073 18.404234193582475 C-43.417287105299394 18.312166409713235, -43.820662422448066 18.220098625843995, -44.18571094830326 18.136778681981802 C-44.424391484733476 18.065939551629015, -44.6630720211637 17.995100421276227, -45.33796658794288 17.79479525645004 C-45.763366495233456 17.638244158213475, -46.18876640252403 17.481693059976905, -46.46594384148827 17.37968920023791 C-46.87545574538838 17.198410428120347, -47.28496764928849 17.01713165600279, -47.56500760845421 16.893166273170362 C-47.79428865365928 16.773550498748396, -48.02356969886434 16.653934724326433, -48.63064160007383 16.337225702313557 C-48.88098978657883 16.18546316044498, -49.13133797308384 16.0337006185764, -49.65846689769778 15.714151966722019 C-49.98646409845504 15.48535531824373, -50.314461299212304 15.256558669765441, -50.6442599467103 15.026505410024189 C-50.843072707475535 14.86795752394367, -51.04188546824077 14.70940963786315, -51.58396991202103 14.277111719421274 C-51.87839637683553 14.00972139417412, -52.17282284165003 13.742331068926966, -52.47373532381536 13.469050314332401 C-52.70743098671701 13.227740355615701, -52.94112664961866 12.986430396899, -53.309899945162165 12.60564169239969 C-53.47491908482919 12.411800821091752, -53.63993822449622 12.217959949783815, -54.08902779627556 11.690433784851257 C-54.337871744205 11.35700556477583, -54.58671569213444 11.023577344700405, -54.80791727369292 10.727187377290688 C-54.97681602331112 10.467713542212461, -55.14571477292933 10.208239707134236, -55.46361430635024 9.719860655822355 C-55.69126225096259 9.315648678309083, -55.91891019557493 8.91143670079581, -56.053424494493754 8.672592942015664 C-56.24543833509888 8.273872093561081, -56.43745217570401 7.8751512451065, -56.57492418154648 7.5896876835448905 C-56.691378723405094 7.302042713658702, -56.80783326526372 7.0143977437725145, -57.025970413433 6.475594770399529 C-57.11912788382517 6.1950193122055435, -57.21228535421734 5.914443854011559, -57.40470974443738 5.334892249331858 C-57.492249759200135 5.001064232959086, -57.579789773962894 4.667236216586313, -57.709585853409195 4.172267511680899 C-57.775588349723336 3.833358642740328, -57.84159084603747 3.4944497737997575, -57.93934593902094 2.9924980318758694 C-57.99630566578673 2.550729639050673, -58.05326539255252 2.1089612462254763, -58.093045867797464 1.8004317357690471 C-58.116213492342105 1.4395772829163245, -58.139381116886746 1.0787228300636018, -58.1700540537629 0.6009670794685367 C-58.1700540537629 0.21663194005674907, -58.1700540537629 -0.16770319935503852, -58.1700540537629 -0.6009670794685276 C-58.14874889188329 -0.9328121729605832, -58.127443730003684 -1.2646572664526388, -58.09304586779747 -1.8004317357690214 C-58.05084655434081 -2.1277212777418804, -58.00864724088415 -2.4550108197147393, -57.93934593902094 -2.9924980318758605 C-57.88158543106218 -3.2890860325564253, -57.823824923103416 -3.58567403323699, -57.709585853409195 -4.17226751168089 C-57.63241888677241 -4.466538599841827, -57.55525192013564 -4.760809688002763, -57.40470974443739 -5.334892249331849 C-57.31805382120174 -5.595886083371273, -57.231397897966076 -5.856879917410696, -57.025970413433015 -6.475594770399505 C-56.929561216906095 -6.713727349766003, -56.83315202037918 -6.951859929132501, -56.574924181546486 -7.589687683544882 C-56.425234395341135 -7.900521727448631, -56.275544609135785 -8.211355771352379, -56.053424494493754 -8.672592942015655 C-55.83969857519967 -9.052084953818419, -55.625972655905585 -9.431576965621183, -55.46361430635024 -9.719860655822348 C-55.329783626512956 -9.925460518621822, -55.195952946675675 -10.131060381421296, -54.80791727369292 -10.727187377290681 C-54.527464552509 -11.102968473908627, -54.24701183132508 -11.478749570526572, -54.08902779627556 -11.690433784851251 C-53.85584914878954 -11.96433869242925, -53.62267050130352 -12.238243600007246, -53.30989994516217 -12.605641692399683 C-53.08674472444272 -12.836067779176874, -52.863589503723254 -13.066493865954067, -52.473735323815376 -13.469050314332382 C-52.22800166819947 -13.69221911860651, -51.98226801258356 -13.915387922880637, -51.58396991202105 -14.277111719421258 C-51.35824703417685 -14.45711970776396, -51.13252415633265 -14.63712769610666, -50.64425994671031 -15.026505410024182 C-50.27687823204665 -15.282774990475447, -49.90949651738298 -15.53904457092671, -49.6584668976978 -15.714151966722005 C-49.35410147438532 -15.898660074983795, -49.04973605107284 -16.083168183245583, -48.63064160007384 -16.33722570231355 C-48.30009201259487 -16.509673210374213, -47.96954242511589 -16.68212071843488, -47.56500760845422 -16.89316627317036 C-47.19987319556576 -17.05480044642856, -46.8347387826773 -17.216434619686762, -46.465943841488276 -17.379689200237905 C-46.16732783638851 -17.48958265049071, -45.86871183128874 -17.599476100743516, -45.3379665879429 -17.794795256450033 C-45.07454031335599 -17.872978791994697, -44.81111403876907 -17.95116232753936, -44.18571094830328 -18.136778681981795 C-43.816586974641694 -18.221028820211014, -43.44746300098011 -18.305278958440233, -43.013911788150736 -18.40423419358247 C-42.6050516453784 -18.47033553070814, -42.19619150260608 -18.53643686783381, -41.8273842815845 -18.596062759185862 C-41.361047759823634 -18.64104968258841, -40.89471123806276 -18.68603660599096, -40.631004124638366 -18.711476114068805 C-40.343887806646535 -18.720683375548795, -40.056771488654704 -18.72989063702878, -39.42968750000001 -18.75 C-39.42968750000001 -18.75, -39.42968750000001 -18.75, -39.4296875 -18.75" stroke="none" stroke-width="0" fill="#4caf50" style="fill:#4caf50 !important"/><path d="M-39.4296875 -18.75 C-12.444121386784474 -18.75, 14.541444726431052 -18.75, 39.4296875 -18.75 M-39.4296875 -18.75 C-20.827696733990745 -18.75, -2.22570596798149 -18.75, 39.4296875 -18.75 M39.4296875 -18.75 C39.4296875 -18.75, 39.4296875 -18.75, 39.4296875 -18.75 M39.4296875 -18.75 C39.4296875 -18.75, 39.4296875 -18.75, 39.4296875 -18.75 M39.4296875 -18.75 C39.87095479573983 -18.73584941670031, 40.31222209147965 -18.72169883340062, 40.631004124638366 -18.711476114068805 M39.4296875 -18.75 C39.760441406889356 -18.73939336597948, 40.09119531377871 -18.728786731958966, 40.631004124638366 -18.711476114068805 M40.631004124638366 -18.711476114068805 C40.99114957805754 -18.676733315315737, 41.35129503147671 -18.641990516562668, 41.827384281584486 -18.596062759185866 M40.631004124638366 -18.711476114068805 C41.050805440959095 -18.670978385968294, 41.470606757279825 -18.630480657867786, 41.827384281584486 -18.596062759185866 M41.827384281584486 -18.596062759185866 C42.27965896594271 -18.52294249566139, 42.73193365030093 -18.449822232136913, 43.01391178815073 -18.40423419358248 M41.827384281584486 -18.596062759185866 C42.18055676806115 -18.538964570465858, 42.53372925453781 -18.48186638174585, 43.01391178815073 -18.40423419358248 M43.01391178815073 -18.40423419358248 C43.3846957393353 -18.319605176316003, 43.75547969051988 -18.234976159049527, 44.18571094830326 -18.136778681981802 M43.01391178815073 -18.40423419358248 C43.39794937857469 -18.316580119647693, 43.78198696899865 -18.228926045712903, 44.18571094830326 -18.136778681981802 M44.18571094830326 -18.136778681981802 C44.61207346833194 -18.010236524059827, 45.038435988360625 -17.883694366137853, 45.33796658794289 -17.794795256450037 M44.18571094830326 -18.136778681981802 C44.460434923270256 -18.055242048267168, 44.73515889823725 -17.973705414552537, 45.33796658794289 -17.794795256450037 M45.33796658794289 -17.794795256450037 C45.74033161453937 -17.646721207240997, 46.14269664113585 -17.49864715803196, 46.46594384148826 -17.37968920023791 M45.33796658794289 -17.794795256450037 C45.59353829121891 -17.700742507165533, 45.84910999449494 -17.606689757881025, 46.46594384148826 -17.37968920023791 M46.46594384148826 -17.37968920023791 C46.904657301301775 -17.185483765550863, 47.34337076111529 -16.99127833086382, 47.56500760845421 -16.89316627317036 M46.46594384148826 -17.37968920023791 C46.76442312333215 -17.24756127623893, 47.06290240517604 -17.11543335223995, 47.56500760845421 -16.89316627317036 M47.56500760845421 -16.89316627317036 C47.920477015608306 -16.707718111147088, 48.2759464227624 -16.522269949123817, 48.63064160007383 -16.337225702313553 M47.56500760845421 -16.89316627317036 C47.839197979075024 -16.750121332444795, 48.11338834969584 -16.607076391719232, 48.63064160007383 -16.337225702313553 M48.63064160007383 -16.337225702313553 C48.900551813684906 -16.173604544654044, 49.170462027295976 -16.00998338699453, 49.658466897697785 -15.714151966722014 M48.63064160007383 -16.337225702313553 C48.96098299706799 -16.136970806154164, 49.29132439406215 -15.936715909994774, 49.658466897697785 -15.714151966722014 M49.658466897697785 -15.714151966722014 C49.972506753381865 -15.495091357963046, 50.286546609065944 -15.276030749204079, 50.6442599467103 -15.026505410024187 M49.658466897697785 -15.714151966722014 C49.95779166268997 -15.5053559682237, 50.25711642768216 -15.296559969725388, 50.6442599467103 -15.026505410024187 M50.6442599467103 -15.026505410024187 C51.005863631573234 -14.73813609402418, 51.36746731643617 -14.449766778024172, 51.58396991202103 -14.277111719421272 M50.6442599467103 -15.026505410024187 C50.93590394514251 -14.793927082247235, 51.22754794357473 -14.561348754470284, 51.58396991202103 -14.277111719421272 M51.58396991202103 -14.277111719421272 C51.90706540384187 -13.983684942387852, 52.230160895662706 -13.69025816535443, 52.47373532381537 -13.469050314332392 M51.58396991202103 -14.277111719421272 C51.82822271631181 -14.055287785139456, 52.07247552060257 -13.833463850857639, 52.47373532381537 -13.469050314332392 M52.47373532381537 -13.469050314332392 C52.73961754689188 -13.194505089669411, 53.00549976996839 -12.91995986500643, 53.309899945162165 -12.605641692399693 M52.47373532381537 -13.469050314332392 C52.77178772875519 -13.16128673567449, 53.06984013369502 -12.853523157016589, 53.309899945162165 -12.605641692399693 M53.309899945162165 -12.605641692399693 C53.58838163894707 -12.278521248822667, 53.86686333273198 -11.95140080524564, 54.08902779627556 -11.690433784851255 M53.309899945162165 -12.605641692399693 C53.5728777337829 -12.296733018025698, 53.835855522403634 -11.987824343651702, 54.08902779627556 -11.690433784851255 M54.08902779627556 -11.690433784851255 C54.29912569539315 -11.408921740346047, 54.50922359451074 -11.12740969584084, 54.80791727369292 -10.727187377290685 M54.08902779627556 -11.690433784851255 C54.3589036936048 -11.3288246686301, 54.62877959093405 -10.967215552408943, 54.80791727369292 -10.727187377290685 M54.80791727369292 -10.727187377290685 C55.04712675068492 -10.359697383892415, 55.28633622767691 -9.992207390494146, 55.46361430635024 -9.719860655822346 M54.80791727369292 -10.727187377290685 C54.949986660976776 -10.508930647450562, 55.09205604826062 -10.29067391761044, 55.46361430635024 -9.719860655822346 M55.46361430635024 -9.719860655822346 C55.615918165495216 -9.449429731472343, 55.7682220246402 -9.178998807122339, 56.053424494493754 -8.672592942015662 M55.46361430635024 -9.719860655822346 C55.679003650901095 -9.337415064036115, 55.89439299545195 -8.954969472249886, 56.053424494493754 -8.672592942015662 M56.053424494493754 -8.672592942015662 C56.20121058512303 -8.36571196270819, 56.3489966757523 -8.058830983400716, 56.57492418154648 -7.589687683544889 M56.053424494493754 -8.672592942015662 C56.179528655009214 -8.410734954508513, 56.305632815524675 -8.148876967001364, 56.57492418154648 -7.589687683544889 M56.57492418154648 -7.589687683544889 C56.72584556698025 -7.216908943657, 56.87676695241401 -6.844130203769111, 57.025970413433 -6.475594770399527 M56.57492418154648 -7.589687683544889 C56.728569159241935 -7.210181618113547, 56.88221413693739 -6.830675552682205, 57.025970413433 -6.475594770399527 M57.025970413433 -6.475594770399527 C57.15931574031414 -6.07397989152615, 57.29266106719528 -5.672365012652773, 57.40470974443738 -5.334892249331864 M57.025970413433 -6.475594770399527 C57.12438467349262 -6.179186699282878, 57.22279893355224 -5.882778628166228, 57.40470974443738 -5.334892249331864 M57.40470974443738 -5.334892249331864 C57.525406268864224 -4.874624091487753, 57.64610279329106 -4.414355933643643, 57.709585853409195 -4.172267511680897 M57.40470974443738 -5.334892249331864 C57.47083006794595 -5.082746799064239, 57.5369503914545 -4.830601348796614, 57.709585853409195 -4.172267511680897 M57.709585853409195 -4.172267511680897 C57.766170241531924 -3.881718637785331, 57.82275462965466 -3.591169763889765, 57.93934593902094 -2.9924980318758676 M57.709585853409195 -4.172267511680897 C57.76495365770251 -3.8879655386242784, 57.82032146199583 -3.603663565567659, 57.93934593902094 -2.9924980318758676 M57.93934593902094 -2.9924980318758676 C57.991422279438986 -2.5886042192300565, 58.04349861985704 -2.1847104065842453, 58.09304586779747 -1.8004317357690365 M57.93934593902094 -2.9924980318758676 C57.99583369066154 -2.5543901849196047, 58.052321442302144 -2.1162823379633418, 58.09304586779747 -1.8004317357690365 M58.09304586779747 -1.8004317357690365 C58.114274046330834 -1.4697857200345483, 58.135502224864204 -1.1391397043000602, 58.1700540537629 -0.6009670794685343 M58.09304586779747 -1.8004317357690365 C58.11446035174662 -1.466883862800671, 58.13587483569577 -1.1333359898323057, 58.1700540537629 -0.6009670794685343 M58.1700540537629 -0.6009670794685343 C58.1700540537629 -0.14388926006510594, 58.1700540537629 0.31318855933832246, 58.1700540537629 0.6009670794685298 M58.1700540537629 -0.6009670794685343 C58.1700540537629 -0.17837165293501583, 58.1700540537629 0.24422377359850267, 58.1700540537629 0.6009670794685298 M58.1700540537629 0.6009670794685298 C58.14767447741349 0.9495470455795032, 58.12529490106408 1.2981270116904766, 58.09304586779747 1.8004317357690236 M58.1700540537629 0.6009670794685298 C58.146376242683374 0.9697680994172134, 58.12269843160385 1.338569119365897, 58.09304586779747 1.8004317357690236 M58.09304586779747 1.8004317357690236 C58.03424333050141 2.2564926031628536, 57.97544079320536 2.712553470556684, 57.93934593902094 2.9924980318758543 M58.09304586779747 1.8004317357690236 C58.050321698813086 2.131791953570443, 58.00759752982871 2.4631521713718616, 57.93934593902094 2.9924980318758543 M57.93934593902094 2.9924980318758543 C57.87054769053454 3.3457624973385434, 57.80174944204814 3.6990269628012324, 57.709585853409195 4.172267511680893 M57.93934593902094 2.9924980318758543 C57.88624864704875 3.2651414040363855, 57.83315135507657 3.537784776196917, 57.709585853409195 4.172267511680893 M57.709585853409195 4.172267511680893 C57.619077734196566 4.517414196705652, 57.52856961498393 4.862560881730412, 57.40470974443738 5.334892249331851 M57.709585853409195 4.172267511680893 C57.63777901909002 4.446098092218752, 57.56597218477085 4.71992867275661, 57.40470974443738 5.334892249331851 M57.40470974443738 5.334892249331851 C57.25658613042221 5.781016974452668, 57.10846251640702 6.227141699573485, 57.02597041343301 6.475594770399514 M57.40470974443738 5.334892249331851 C57.26708809842582 5.749386720087138, 57.12946645241426 6.1638811908424245, 57.02597041343301 6.475594770399514 M57.02597041343301 6.475594770399514 C56.89551599577757 6.797819704173021, 56.76506157812214 7.120044637946528, 56.574924181546486 7.589687683544883 M57.02597041343301 6.475594770399514 C56.85696739311792 6.893035498028905, 56.68796437280283 7.310476225658294, 56.574924181546486 7.589687683544883 M56.574924181546486 7.589687683544883 C56.45000105666657 7.849093225284701, 56.32507793178666 8.108498767024518, 56.053424494493754 8.672592942015656 M56.574924181546486 7.589687683544883 C56.38894995629807 7.9758671414841755, 56.20297573104966 8.362046599423469, 56.053424494493754 8.672592942015656 M56.053424494493754 8.672592942015656 C55.85245400352292 9.0294363992033, 55.6514835125521 9.386279856390944, 55.46361430635024 9.719860655822343 M56.053424494493754 8.672592942015656 C55.893127378826584 8.9572167027258, 55.732830263159414 9.241840463435944, 55.46361430635024 9.719860655822343 M55.46361430635024 9.719860655822343 C55.29840984970903 9.973659064831338, 55.13320539306782 10.227457473840333, 54.80791727369292 10.727187377290674 M55.46361430635024 9.719860655822343 C55.3243106033821 9.933868551863299, 55.18500690041397 10.147876447904252, 54.80791727369292 10.727187377290674 M54.80791727369292 10.727187377290674 C54.54312137728749 11.081989755071522, 54.27832548088207 11.43679213285237, 54.08902779627556 11.690433784851251 M54.80791727369292 10.727187377290674 C54.657745119725114 10.92840438264287, 54.507572965757305 11.129621387995066, 54.08902779627556 11.690433784851251 M54.08902779627556 11.690433784851251 C53.86148180698336 11.957722251607445, 53.633935817691174 12.22501071836364, 53.30989994516217 12.605641692399683 M54.08902779627556 11.690433784851251 C53.922298644621016 11.886283333542165, 53.75556949296647 12.08213288223308, 53.30989994516217 12.605641692399683 M53.30989994516217 12.605641692399683 C53.11507807265993 12.806811270931453, 52.92025620015769 13.007980849463221, 52.473735323815376 13.469050314332389 M53.30989994516217 12.605641692399683 C53.0262003613706 12.898584804833492, 52.74250077757902 13.1915279172673, 52.473735323815376 13.469050314332389 M52.473735323815376 13.469050314332389 C52.20562706922421 13.712539137396396, 51.937518814633044 13.956027960460405, 51.58396991202105 14.27711171942126 M52.473735323815376 13.469050314332389 C52.18142786594873 13.734516213535358, 51.88912040808208 13.999982112738326, 51.58396991202105 14.27711171942126 M51.58396991202105 14.27711171942126 C51.23209956150918 14.557718960291197, 50.88022921099732 14.838326201161133, 50.64425994671031 15.026505410024184 M51.58396991202105 14.27711171942126 C51.34456051345534 14.468034343825753, 51.10515111488963 14.658956968230246, 50.64425994671031 15.026505410024184 M50.64425994671031 15.026505410024184 C50.37046962956788 15.217489683070937, 50.096679312425444 15.408473956117689, 49.65846689769779 15.714151966722007 M50.64425994671031 15.026505410024184 C50.309682161342515 15.25989238945786, 49.97510437597472 15.493279368891537, 49.65846689769779 15.714151966722007 M49.65846689769779 15.714151966722007 C49.34498329650682 15.9041875679981, 49.03149969531585 16.094223169274194, 48.63064160007383 16.337225702313553 M49.65846689769779 15.714151966722007 C49.310146775735504 15.925305671611794, 48.96182665377321 16.13645937650158, 48.63064160007383 16.337225702313553 M48.63064160007383 16.337225702313553 C48.288323271084465 16.51581295528195, 47.9460049420951 16.694400208250347, 47.565007608454216 16.89316627317036 M48.63064160007383 16.337225702313553 C48.30156166826243 16.5089064919538, 47.97248173645104 16.680587281594054, 47.565007608454216 16.89316627317036 M47.565007608454216 16.89316627317036 C47.20524617210992 17.052421989096143, 46.84548473576563 17.211677705021923, 46.46594384148827 17.379689200237905 M47.565007608454216 16.89316627317036 C47.20176888631929 17.053961280365638, 46.83853016418436 17.214756287560917, 46.46594384148827 17.379689200237905 M46.46594384148827 17.379689200237905 C46.12628814373699 17.504685636753226, 45.78663244598572 17.62968207326855, 45.3379665879429 17.794795256450033 M46.46594384148827 17.379689200237905 C46.20148762729425 17.477011531667753, 45.93703141310022 17.5743338630976, 45.3379665879429 17.794795256450033 M45.3379665879429 17.794795256450033 C45.084091272939276 17.870144117324386, 44.83021595793565 17.945492978198743, 44.18571094830328 18.1367786819818 M45.3379665879429 17.794795256450033 C45.01600767591865 17.890350971542016, 44.69404876389441 17.985906686633996, 44.18571094830328 18.1367786819818 M44.18571094830328 18.1367786819818 C43.77318859546327 18.2309342170576, 43.360666242623246 18.325089752133408, 43.013911788150736 18.404234193582475 M44.18571094830328 18.1367786819818 C43.89413194427591 18.203329686920224, 43.60255294024854 18.269880691858653, 43.013911788150736 18.404234193582475 M43.013911788150736 18.404234193582475 C42.69606074305945 18.455621885581166, 42.37820969796816 18.507009577579854, 41.8273842815845 18.596062759185862 M43.013911788150736 18.404234193582475 C42.595900052390085 18.47181508929083, 42.17788831662944 18.539395984999185, 41.8273842815845 18.596062759185862 M41.8273842815845 18.596062759185862 C41.43277461885962 18.63413027876138, 41.038164956134736 18.672197798336892, 40.631004124638366 18.711476114068805 M41.8273842815845 18.596062759185862 C41.3763553750093 18.63957297536155, 40.9253264684341 18.68308319153724, 40.631004124638366 18.711476114068805 M40.631004124638366 18.711476114068805 C40.209107709897296 18.725005510918, 39.787211295156226 18.73853490776719, 39.4296875 18.75 M40.631004124638366 18.711476114068805 C40.1843170544806 18.725800498985127, 39.73762998432284 18.74012488390145, 39.4296875 18.75 M39.4296875 18.75 C39.4296875 18.75, 39.4296875 18.75, 39.4296875 18.75 M39.4296875 18.75 C39.4296875 18.75, 39.4296875 18.75, 39.4296875 18.75 M39.4296875 18.75 C19.00745826752153 18.75, -1.4147709649569435 18.75, -39.4296875 18.75 M39.4296875 18.75 C9.146924919915055 18.75, -21.13583766016989 18.75, -39.4296875 18.75 M-39.4296875 18.75 C-39.87322993345984 18.735776457461917, -40.316772366919686 18.72155291492383, -40.63100412463836 18.711476114068805 M-39.4296875 18.75 C-39.86430545860916 18.73606264799994, -40.298923417218326 18.72212529599988, -40.63100412463836 18.711476114068805 M-40.63100412463836 18.711476114068805 C-40.97437813509891 18.678351236247345, -41.31775214555946 18.64522635842588, -41.82738428158449 18.596062759185862 M-40.63100412463836 18.711476114068805 C-41.07643695499107 18.668505744636036, -41.52186978534378 18.625535375203263, -41.82738428158449 18.596062759185862 M-41.82738428158449 18.596062759185862 C-42.09084492879482 18.55346848491273, -42.35430557600515 18.5108742106396, -43.01391178815073 18.404234193582475 M-41.82738428158449 18.596062759185862 C-42.291645015365276 18.521004684143946, -42.755905749146066 18.445946609102034, -43.01391178815073 18.404234193582475 M-43.01391178815073 18.404234193582475 C-43.3255650844468 18.333101362430718, -43.63721838074288 18.261968531278956, -44.18571094830326 18.136778681981802 M-43.01391178815073 18.404234193582475 C-43.24909631706967 18.350554859579205, -43.484280845988614 18.296875525575935, -44.18571094830326 18.136778681981802 M-44.18571094830326 18.136778681981802 C-44.532520566469415 18.033847407750923, -44.87933018463557 17.930916133520043, -45.33796658794288 17.79479525645004 M-44.18571094830326 18.136778681981802 C-44.61707449503473 18.008752245585363, -45.048438041766204 17.880725809188927, -45.33796658794288 17.79479525645004 M-45.33796658794288 17.79479525645004 C-45.754480131084435 17.64151442236496, -46.170993674226 17.488233588279883, -46.46594384148827 17.37968920023791 M-45.33796658794288 17.79479525645004 C-45.57142144690271 17.708881710319766, -45.80487630586254 17.622968164189487, -46.46594384148827 17.37968920023791 M-46.46594384148827 17.37968920023791 C-46.7743562945334 17.243164156005193, -47.08276874757853 17.10663911177248, -47.56500760845421 16.893166273170362 M-46.46594384148827 17.37968920023791 C-46.76863336535502 17.2456975269878, -47.07132288922177 17.111705853737693, -47.56500760845421 16.893166273170362 M-47.56500760845421 16.893166273170362 C-47.809965793120085 16.76537174513338, -48.05492397778597 16.637577217096396, -48.63064160007383 16.337225702313557 M-47.56500760845421 16.893166273170362 C-47.91404857632176 16.71107182380527, -48.26308954418931 16.52897737444018, -48.63064160007383 16.337225702313557 M-48.63064160007383 16.337225702313557 C-48.978620766102 16.126278686914713, -49.326599932130165 15.91533167151587, -49.65846689769778 15.714151966722019 M-48.63064160007383 16.337225702313557 C-49.02210611583657 16.099917612357338, -49.413570631599306 15.862609522401117, -49.65846689769778 15.714151966722019 M-49.65846689769778 15.714151966722019 C-49.90938523923618 15.539122193744767, -50.16030358077459 15.364092420767516, -50.6442599467103 15.026505410024189 M-49.65846689769778 15.714151966722019 C-49.936423604219705 15.520261400804216, -50.21438031074164 15.326370834886413, -50.6442599467103 15.026505410024189 M-50.6442599467103 15.026505410024189 C-50.9610722979021 14.773855990679461, -51.277884649093906 14.521206571334734, -51.58396991202103 14.277111719421274 M-50.6442599467103 15.026505410024189 C-50.93293732498902 14.79629288287457, -51.22161470326774 14.566080355724951, -51.58396991202103 14.277111719421274 M-51.58396991202103 14.277111719421274 C-51.90533610220944 13.98525544837561, -52.226702292397846 13.693399177329946, -52.47373532381536 13.469050314332401 M-51.58396991202103 14.277111719421274 C-51.875270402979936 14.012560320921034, -52.16657089393885 13.748008922420794, -52.47373532381536 13.469050314332401 M-52.47373532381536 13.469050314332401 C-52.7602958836002 13.173153009295055, -53.04685644338503 12.87725570425771, -53.309899945162165 12.60564169239969 M-52.47373532381536 13.469050314332401 C-52.70410942633444 13.231170139415886, -52.93448352885351 12.993289964499368, -53.309899945162165 12.60564169239969 M-53.309899945162165 12.60564169239969 C-53.52590733560966 12.35190712041135, -53.74191472605716 12.098172548423012, -54.08902779627556 11.690433784851257 M-53.309899945162165 12.60564169239969 C-53.51943851836334 12.359505761235013, -53.72897709156451 12.113369830070335, -54.08902779627556 11.690433784851257 M-54.08902779627556 11.690433784851257 C-54.33350410446108 11.36285780413252, -54.5779804126466 11.035281823413783, -54.80791727369292 10.727187377290688 M-54.08902779627556 11.690433784851257 C-54.30648832778667 11.399056483688343, -54.52394885929778 11.107679182525429, -54.80791727369292 10.727187377290688 M-54.80791727369292 10.727187377290688 C-54.942250939620095 10.520814792786462, -55.07658460554727 10.314442208282236, -55.46361430635024 9.719860655822355 M-54.80791727369292 10.727187377290688 C-55.02066321375752 10.400352483067557, -55.23340915382213 10.073517588844426, -55.46361430635024 9.719860655822355 M-55.46361430635024 9.719860655822355 C-55.61521380690075 9.450680391480882, -55.76681330745125 9.181500127139408, -56.053424494493754 8.672592942015664 M-55.46361430635024 9.719860655822355 C-55.58813010967394 9.498770238428808, -55.712645912997644 9.27767982103526, -56.053424494493754 8.672592942015664 M-56.053424494493754 8.672592942015664 C-56.19100990566209 8.386893891868402, -56.32859531683043 8.10119484172114, -56.57492418154648 7.5896876835448905 M-56.053424494493754 8.672592942015664 C-56.157917184017435 8.455611636434353, -56.26240987354111 8.238630330853043, -56.57492418154648 7.5896876835448905 M-56.57492418154648 7.5896876835448905 C-56.74939503592431 7.15874130006716, -56.92386589030213 6.727794916589429, -57.025970413433 6.475594770399529 M-56.57492418154648 7.5896876835448905 C-56.739070872438425 7.184242183481403, -56.90321756333038 6.778796683417914, -57.025970413433 6.475594770399529 M-57.025970413433 6.475594770399529 C-57.143102577072526 6.122811355993133, -57.26023474071206 5.770027941586737, -57.40470974443738 5.334892249331858 M-57.025970413433 6.475594770399529 C-57.17483637944134 6.027234199353049, -57.32370234544968 5.578873628306569, -57.40470974443738 5.334892249331858 M-57.40470974443738 5.334892249331858 C-57.51131613779591 4.928355867952671, -57.61792253115443 4.521819486573484, -57.709585853409195 4.172267511680899 M-57.40470974443738 5.334892249331858 C-57.4773897061791 5.057732055516008, -57.55006966792082 4.780571861700159, -57.709585853409195 4.172267511680899 M-57.709585853409195 4.172267511680899 C-57.765756243836535 3.8838444284527425, -57.82192663426387 3.595421345224586, -57.93934593902094 2.9924980318758694 M-57.709585853409195 4.172267511680899 C-57.79360233059539 3.740860658218513, -57.87761880778159 3.309453804756127, -57.93934593902094 2.9924980318758694 M-57.93934593902094 2.9924980318758694 C-57.97847580411301 2.6890145252876363, -58.017605669205075 2.385531018699403, -58.093045867797464 1.8004317357690471 M-57.93934593902094 2.9924980318758694 C-57.98791677979281 2.6157921822466097, -58.03648762056468 2.23908633261735, -58.093045867797464 1.8004317357690471 M-58.093045867797464 1.8004317357690471 C-58.11279790280445 1.4927778469795552, -58.13254993781143 1.1851239581900634, -58.1700540537629 0.6009670794685367 M-58.093045867797464 1.8004317357690471 C-58.1104041145863 1.5300630307082734, -58.12776236137514 1.2596943256474997, -58.1700540537629 0.6009670794685367 M-58.1700540537629 0.6009670794685367 C-58.1700540537629 0.17993382073610542, -58.1700540537629 -0.24109943799632583, -58.1700540537629 -0.6009670794685276 M-58.1700540537629 0.6009670794685367 C-58.1700540537629 0.18870375852449295, -58.1700540537629 -0.22355956241955077, -58.1700540537629 -0.6009670794685276 M-58.1700540537629 -0.6009670794685276 C-58.142080420955025 -1.0366789903611064, -58.11410678814716 -1.4723909012536853, -58.09304586779747 -1.8004317357690214 M-58.1700540537629 -0.6009670794685276 C-58.143158327750704 -1.0198897219477, -58.11626260173852 -1.4388123644268722, -58.09304586779747 -1.8004317357690214 M-58.09304586779747 -1.8004317357690214 C-58.04341504867156 -2.185358568195783, -57.99378422954565 -2.570285400622544, -57.93934593902094 -2.9924980318758605 M-58.09304586779747 -1.8004317357690214 C-58.05141057340391 -2.1233468572666463, -58.00977527901035 -2.446261978764271, -57.93934593902094 -2.9924980318758605 M-57.93934593902094 -2.9924980318758605 C-57.86403807464817 -3.3791879991072418, -57.78873021027541 -3.765877966338623, -57.709585853409195 -4.17226751168089 M-57.93934593902094 -2.9924980318758605 C-57.85855717470612 -3.40733126192107, -57.7777684103913 -3.822164491966279, -57.709585853409195 -4.17226751168089 M-57.709585853409195 -4.17226751168089 C-57.611262353729124 -4.547217629635325, -57.512938854049054 -4.922167747589759, -57.40470974443739 -5.334892249331849 M-57.709585853409195 -4.17226751168089 C-57.61438374750852 -4.535314402333856, -57.51918164160785 -4.898361292986821, -57.40470974443739 -5.334892249331849 M-57.40470974443739 -5.334892249331849 C-57.2978656116794 -5.656689753898169, -57.191021478921414 -5.978487258464488, -57.025970413433015 -6.475594770399505 M-57.40470974443739 -5.334892249331849 C-57.297661538236554 -5.6573043905933424, -57.19061333203572 -5.9797165318548355, -57.025970413433015 -6.475594770399505 M-57.025970413433015 -6.475594770399505 C-56.93337013127469 -6.704319257635219, -56.84076984911638 -6.933043744870932, -56.574924181546486 -7.589687683544882 M-57.025970413433015 -6.475594770399505 C-56.84657368081893 -6.918708168356164, -56.66717694820485 -7.361821566312822, -56.574924181546486 -7.589687683544882 M-56.574924181546486 -7.589687683544882 C-56.40425942407226 -7.9440767040809375, -56.23359466659804 -8.298465724616992, -56.053424494493754 -8.672592942015655 M-56.574924181546486 -7.589687683544882 C-56.45490390093247 -7.838912364262501, -56.33488362031846 -8.088137044980119, -56.053424494493754 -8.672592942015655 M-56.053424494493754 -8.672592942015655 C-55.858104157411006 -9.019403978834887, -55.662783820328265 -9.36621501565412, -55.46361430635024 -9.719860655822348 M-56.053424494493754 -8.672592942015655 C-55.842071234383994 -9.047872057178852, -55.63071797427424 -9.423151172342049, -55.46361430635024 -9.719860655822348 M-55.46361430635024 -9.719860655822348 C-55.30271996354898 -9.967037572545557, -55.141825620747724 -10.214214489268766, -54.80791727369292 -10.727187377290681 M-55.46361430635024 -9.719860655822348 C-55.281509013121706 -9.999623288339544, -55.099403719893175 -10.27938592085674, -54.80791727369292 -10.727187377290681 M-54.80791727369292 -10.727187377290681 C-54.56594270581674 -11.051411253908142, -54.32396813794055 -11.375635130525605, -54.08902779627556 -11.690433784851251 M-54.80791727369292 -10.727187377290681 C-54.627704229326284 -10.96865643899589, -54.447491184959645 -11.210125500701098, -54.08902779627556 -11.690433784851251 M-54.08902779627556 -11.690433784851251 C-53.84676990049816 -11.975003694096165, -53.60451200472076 -12.259573603341078, -53.30989994516217 -12.605641692399683 M-54.08902779627556 -11.690433784851251 C-53.856885764438935 -11.963121024702364, -53.62474373260231 -12.235808264553476, -53.30989994516217 -12.605641692399683 M-53.30989994516217 -12.605641692399683 C-53.07941459835386 -12.84363673617816, -52.84892925154555 -13.08163177995664, -52.473735323815376 -13.469050314332382 M-53.30989994516217 -12.605641692399683 C-53.04891711995221 -12.875127886517408, -52.78793429474225 -13.144614080635131, -52.473735323815376 -13.469050314332382 M-52.473735323815376 -13.469050314332382 C-52.26714909444121 -13.656666461877899, -52.06056286506704 -13.844282609423416, -51.58396991202105 -14.277111719421258 M-52.473735323815376 -13.469050314332382 C-52.118311503366414 -13.791836824065165, -51.76288768291745 -14.11462333379795, -51.58396991202105 -14.277111719421258 M-51.58396991202105 -14.277111719421258 C-51.23670336995614 -14.554047545567236, -50.889436827891224 -14.830983371713215, -50.64425994671031 -15.026505410024182 M-51.58396991202105 -14.277111719421258 C-51.259874868490236 -14.535568892105763, -50.93577982495943 -14.794026064790268, -50.64425994671031 -15.026505410024182 M-50.64425994671031 -15.026505410024182 C-50.30114381881877 -15.265848367583532, -49.95802769092724 -15.505191325142881, -49.6584668976978 -15.714151966722005 M-50.64425994671031 -15.026505410024182 C-50.34628864431947 -15.23435729160224, -50.048317341928644 -15.4422091731803, -49.6584668976978 -15.714151966722005 M-49.6584668976978 -15.714151966722005 C-49.437335248098805 -15.848203272222731, -49.21620359849981 -15.98225457772346, -48.63064160007384 -16.33722570231355 M-49.6584668976978 -15.714151966722005 C-49.37863737301252 -15.88378626904704, -49.09880784832724 -16.053420571372076, -48.63064160007384 -16.33722570231355 M-48.63064160007384 -16.33722570231355 C-48.26417399641373 -16.528411616409326, -47.89770639275362 -16.719597530505105, -47.56500760845422 -16.89316627317036 M-48.63064160007384 -16.33722570231355 C-48.39055552032173 -16.46247845633775, -48.15046944056963 -16.58773121036195, -47.56500760845422 -16.89316627317036 M-47.56500760845422 -16.89316627317036 C-47.16449516046925 -17.070461253113663, -46.76398271248427 -17.247756233056965, -46.465943841488276 -17.379689200237905 M-47.56500760845422 -16.89316627317036 C-47.26362769342473 -17.026578221436377, -46.96224777839524 -17.159990169702397, -46.465943841488276 -17.379689200237905 M-46.465943841488276 -17.379689200237905 C-46.21441182774923 -17.47225530643032, -45.96287981401018 -17.564821412622738, -45.3379665879429 -17.794795256450033 M-46.465943841488276 -17.379689200237905 C-46.22243217209991 -17.46930374557002, -45.97892050271154 -17.558918290902138, -45.3379665879429 -17.794795256450033 M-45.3379665879429 -17.794795256450033 C-44.93223817794702 -17.915213318824925, -44.52650976795115 -18.035631381199817, -44.18571094830328 -18.136778681981795 M-45.3379665879429 -17.794795256450033 C-44.9635934053453 -17.905907251920063, -44.5892202227477 -18.017019247390095, -44.18571094830328 -18.136778681981795 M-44.18571094830328 -18.136778681981795 C-43.8500619706676 -18.213388370812865, -43.514412993031925 -18.28999805964393, -43.013911788150736 -18.40423419358247 M-44.18571094830328 -18.136778681981795 C-43.87382898255297 -18.207963705444275, -43.56194701680267 -18.279148728906755, -43.013911788150736 -18.40423419358247 M-43.013911788150736 -18.40423419358247 C-42.743892655373216 -18.447888792940294, -42.473873522595696 -18.491543392298112, -41.8273842815845 -18.596062759185862 M-43.013911788150736 -18.40423419358247 C-42.576883932843096 -18.474889468026976, -42.139856077535455 -18.54554474247148, -41.8273842815845 -18.596062759185862 M-41.8273842815845 -18.596062759185862 C-41.55336708279879 -18.622496868798823, -41.27934988401308 -18.648930978411784, -40.631004124638366 -18.711476114068805 M-41.8273842815845 -18.596062759185862 C-41.42272297763403 -18.635099948501544, -41.01806167368356 -18.674137137817223, -40.631004124638366 -18.711476114068805 M-40.631004124638366 -18.711476114068805 C-40.29423336540518 -18.7222756968329, -39.95746260617199 -18.73307527959699, -39.42968750000001 -18.75 M-40.631004124638366 -18.711476114068805 C-40.33332398866428 -18.72102213663026, -40.0356438526902 -18.730568159191716, -39.42968750000001 -18.75 M-39.42968750000001 -18.75 C-39.42968750000001 -18.75, -39.42968750000001 -18.75, -39.4296875 -18.75 M-39.42968750000001 -18.75 C-39.42968750000001 -18.75, -39.42968750000001 -18.75, -39.4296875 -18.75" stroke="#000000" stroke-width="1.3" fill="none" stroke-dasharray="0 0" style="fill:#4caf50 !important"/></g><g class="label" style="" transform="translate(-45.9921875, -11.25)"><rect/><foreignObject width="91.984375" height="22.5"><div xmlns="http://www.w3.org/1999/xhtml" style="display: table-cell; white-space: nowrap; line-height: 1.5; max-width: 200px; text-align: center;"><span class="nodeLabel"><p>⏰ 早上 8:00</p></span></div></foreignObject></g></g><g class="node default" id="flowchart-Cron-1" transform="translate(230.24609375, 121.75)"><rect class="basic label-container" style="fill:#ff9800 !important" x="-81" y="-26.25" width="162" height="52.5"/><g class="label" style="" transform="translate(-51, -11.25)"><rect/><foreignObject width="102" height="22.5"><div xmlns="http://www.w3.org/1999/xhtml" style="display: table-cell; white-space: nowrap; line-height: 1.5; max-width: 200px; text-align: center;"><span class="nodeLabel"><p>Cron Job 触发</p></span></div></foreignObject></g></g><g class="node default" id="flowchart-WS-3" transform="translate(230.24609375, 224.25)"><rect class="basic label-container" style="fill:#2196f3 !important" x="-102.5234375" y="-26.25" width="205.046875" height="52.5"/><g class="label" style="" transform="translate(-72.5234375, -11.25)"><rect/><foreignObject width="145.046875" height="22.5"><div xmlns="http://www.w3.org/1999/xhtml" style="display: table-cell; white-space: nowrap; line-height: 1.5; max-width: 200px; text-align: center;"><span class="nodeLabel"><p>Workspace 执行任务</p></span></div></foreignObject></g></g><g class="node default" id="flowchart-Task1-5" transform="translate(106.7890625, 326.75)"><rect class="basic label-container" style="fill:#9c27b0 !important" x="-98.7890625" y="-26.25" width="197.578125" height="52.5"/><g class="label" style="" transform="translate(-68.7890625, -11.25)"><rect/><foreignObject width="137.578125" height="22.5"><div xmlns="http://www.w3.org/1999/xhtml" style="display: table-cell; white-space: nowrap; line-height: 1.5; max-width: 200px; text-align: center;"><span class="nodeLabel"><p>调用 Weather Skill</p></span></div></foreignObject></g></g><g class="node default" id="flowchart-Task2-7" transform="translate(353.703125, 326.75)"><rect class="basic label-container" style="fill:#9c27b0 !important" x="-98.125" y="-26.25" width="196.25" height="52.5"/><g class="label" style="" transform="translate(-68.125, -11.25)"><rect/><foreignObject width="136.25" height="22.5"><div xmlns="http://www.w3.org/1999/xhtml" style="display: table-cell; white-space: nowrap; line-height: 1.5; max-width: 200px; text-align: center;"><span class="nodeLabel"><p>调用 Calendar Skill</p></span></div></foreignObject></g></g><g class="node default" id="flowchart-W-9" transform="translate(106.7890625, 429.25)"><rect class="basic label-container" style="" x="-75" y="-26.25" width="150" height="52.5"/><g class="label" style="" transform="translate(-45, -11.25)"><rect/><foreignObject width="90" height="22.5"><div xmlns="http://www.w3.org/1999/xhtml" style="display: table-cell; white-space: nowrap; line-height: 1.5; max-width: 200px; text-align: center;"><span class="nodeLabel"><p>获取天气数据</p></span></div></foreignObject></g></g><g class="node default" id="flowchart-C-11" transform="translate(353.703125, 429.25)"><rect class="basic label-container" style="" x="-75" y="-26.25" width="150" height="52.5"/><g class="label" style="" transform="translate(-45, -11.25)"><rect/><foreignObject width="90" height="22.5"><div xmlns="http://www.w3.org/1999/xhtml" style="display: table-cell; white-space: nowrap; line-height: 1.5; max-width: 200px; text-align: center;"><span class="nodeLabel"><p>获取今日日程</p></span></div></foreignObject></g></g><g class="node default" id="flowchart-LLM-13" transform="translate(230.24609375, 531.75)"><rect class="basic label-container" style="fill:#e91e63 !important" x="-70.63671875" y="-26.25" width="141.2734375" height="52.5"/><g class="label" style="" transform="translate(-40.63671875, -11.25)"><rect/><foreignObject width="81.2734375" height="22.5"><div xmlns="http://www.w3.org/1999/xhtml" style="display: table-cell; white-space: nowrap; line-height: 1.5; max-width: 200px; text-align: center;"><span class="nodeLabel"><p>发送给 LLM</p></span></div></foreignObject></g></g><g class="node default" id="flowchart-Generate-17" transform="translate(230.24609375, 634.25)"><rect class="basic label-container" style="" x="-60" y="-26.25" width="120" height="52.5"/><g class="label" style="" transform="translate(-30, -11.25)"><rect/><foreignObject width="60" height="22.5"><div xmlns="http://www.w3.org/1999/xhtml" style="display: table-cell; white-space: nowrap; line-height: 1.5; max-width: 200px; text-align: center;"><span class="nodeLabel"><p>生成报告</p></span></div></foreignObject></g></g><g class="node default" id="flowchart-GW-19" transform="translate(230.24609375, 736.75)"><rect class="basic label-container" style="" x="-78.69140625" y="-26.25" width="157.3828125" height="52.5"/><g class="label" style="" transform="translate(-48.69140625, -11.25)"><rect/><foreignObject width="97.3828125" height="22.5"><div xmlns="http://www.w3.org/1999/xhtml" style="display: table-cell; white-space: nowrap; line-height: 1.5; max-width: 200px; text-align: center;"><span class="nodeLabel"><p>通过 Gateway</p></span></div></foreignObject></g></g><g class="node default" id="flowchart-TG-21" transform="translate(230.24609375, 839.25)"><rect class="basic label-container" style="" x="-88.9921875" y="-26.25" width="177.984375" height="52.5"/><g class="label" style="" transform="translate(-58.9921875, -11.25)"><rect/><foreignObject width="117.984375" height="22.5"><div xmlns="http://www.w3.org/1999/xhtml" style="display: table-cell; white-space: nowrap; line-height: 1.5; max-width: 200px; text-align: center;"><span class="nodeLabel"><p>发送到 Telegram</p></span></div></foreignObject></g></g><g class="node default" id="flowchart-User-23" transform="translate(230.24609375, 941.75)"><rect class="basic label-container" style="fill:#00bcd4 !important" x="-85.75390625" y="-26.25" width="171.5078125" height="52.5"/><g class="label" style="" transform="translate(-55.75390625, -11.25)"><rect/><foreignObject width="111.5078125" height="22.5"><div xmlns="http://www.w3.org/1999/xhtml" style="display: table-cell; white-space: nowrap; line-height: 1.5; max-width: 200px; text-align: center;"><span class="nodeLabel"><p>👤 用户收到消息</p></span></div></foreignObject></g></g></g></g></g></svg>