<svg width="1280" height="800" viewBox="0 0 1280 800" fill="none" xmlns="http://www.w3.org/2000/svg">
<rect width="1280" height="800" fill="#F4F7F6"/>
<rect x="48" y="48" width="1184" height="704" rx="36" fill="url(#background)"/>
<circle cx="1088" cy="176" r="164" fill="url(#glow)" fill-opacity="0.72"/>
<circle cx="218" cy="664" r="212" fill="#D5F1EA" fill-opacity="0.88"/>
<rect x="124" y="146" width="408" height="28" rx="14" fill="#D6E3DE"/>
<rect x="124" y="202" width="514" height="84" rx="22" fill="#FFFFFF" fill-opacity="0.92"/>
<rect x="124" y="324" width="612" height="20" rx="10" fill="#D7E7E1"/>
<rect x="124" y="364" width="560" height="20" rx="10" fill="#D7E7E1"/>
<rect x="124" y="404" width="492" height="20" rx="10" fill="#D7E7E1"/>
<rect x="124" y="494" width="236" height="68" rx="22" fill="#0F8F75"/>
<rect x="124" y="604" width="332" height="18" rx="9" fill="#BBD6CF"/>
<rect x="838" y="176" width="266" height="332" rx="32" fill="#FFFFFF" fill-opacity="0.9"/>
<rect x="874" y="214" width="192" height="170" rx="24" fill="url(#card)"/>
<rect x="874" y="410" width="160" height="18" rx="9" fill="#D5E3DE"/>
<rect x="874" y="442" width="126" height="18" rx="9" fill="#D5E3DE"/>
<path d="M933 286L974 326L1016 274L1054 322" stroke="#FFFFFF" stroke-width="18" stroke-linecap="round" stroke-linejoin="round"/>
<circle cx="957" cy="250" r="20" fill="#FFFFFF"/>
<defs>
<linearGradient id="background" x1="88" y1="104" x2="1174" y2="724" gradientUnits="userSpaceOnUse">
<stop stop-color="#EAF7F2"/>
<stop offset="0.56" stop-color="#F8FBFA"/>
<stop offset="1" stop-color="#E1F3EE"/>
</linearGradient>
<radialGradient id="glow" cx="0" cy="0" r="1" gradientUnits="userSpaceOnUse" gradientTransform="translate(1088 176) rotate(90) scale(164)">
<stop stop-color="#8ADBC8"/>
<stop offset="1" stop-color="#8ADBC8" stop-opacity="0"/>
</radialGradient>
<linearGradient id="card" x1="874" y1="214" x2="1066" y2="384" gradientUnits="userSpaceOnUse">
<stop stop-color="#19A587"/>
<stop offset="1" stop-color="#0F7C67"/>
</linearGradient>
</defs>
</svg>
