<svg xmlns="http://www.w3.org/2000/svg" width="96" height="96" viewBox="0 0 96 96" fill="none">
  <defs>
    <linearGradient id="book-left" x1="14" y1="22" x2="48" y2="76" gradientUnits="userSpaceOnUse">
      <stop stop-color="#3b82f6"/>
      <stop offset="1" stop-color="#1d4ed8"/>
    </linearGradient>
    <linearGradient id="book-right" x1="82" y1="22" x2="48" y2="76" gradientUnits="userSpaceOnUse">
      <stop stop-color="#60a5fa"/>
      <stop offset="1" stop-color="#2563eb"/>
    </linearGradient>
  </defs>
  <rect x="6" y="6" width="84" height="84" rx="20" fill="#eff6ff"/>
  <rect x="6" y="6" width="84" height="84" rx="20" stroke="#bfdbfe" stroke-width="3"/>
  <path d="M48 76 L14 64 L20 21 L48 33 Z" fill="url(#book-left)"/>
  <path d="M48 76 L82 64 L76 21 L48 33 Z" fill="url(#book-right)"/>
  <path d="M48 33 V76" stroke="#dbeafe" stroke-width="4" stroke-linecap="round"/>
  <path d="M24 31 L43 39 M22 45 L43 52" stroke="#dbeafe" stroke-width="3" stroke-linecap="round"/>
  <path d="M53 39 L72 31 M53 52 L74 45" stroke="#eff6ff" stroke-width="3" stroke-linecap="round"/>
  <path d="M20 21 L48 33 L76 21" stroke="#93c5fd" stroke-width="3" stroke-linecap="round" stroke-linejoin="round"/>
</svg>
